/* XPM */
static char *_8511_1ad9fbd4be92943fdf9bdb54974f2f92e7e10d4caa0c93cfd2708afd93b4f1b2[] = {
/* columns rows colors chars-per-pixel */
"64 64 83 1 ",
"  c #00040D",
". c #01090D",
"X c #000614",
"o c #020B15",
"O c #000718",
"+ c #050E1C",
"@ c #080F1F",
"# c #061016",
"$ c #091316",
"% c #06101C",
"& c #0A121D",
"* c #0E191C",
"= c #10171D",
"- c #060E20",
"; c #080F21",
": c #061021",
"> c #0A1322",
", c #0F1924",
"< c #0F1829",
"1 c #121A25",
"2 c #101729",
"3 c #141C2A",
"4 c #192026",
"5 c #17202D",
"6 c #1A232C",
"7 c #1E292E",
"8 c #1B2332",
"9 c #1F2832",
"0 c #222E2C",
"q c #232B35",
"w c #273037",
"e c #293436",
"r c #273039",
"t c #2B343B",
"y c #2E393B",
"u c #2E3740",
"i c #2F3A40",
"p c #313A42",
"a c #363E4A",
"s c #374047",
"d c #37414A",
"f c #3A444B",
"g c #3C4451",
"h c #414B4C",
"j c #424B55",
"k c #424A5B",
"l c #4D565C",
"z c #4C5561",
"x c #515B63",
"c c #596164",
"v c #58606B",
"b c #5F6871",
"n c #666E75",
"m c #666E79",
"M c #667072",
"N c #69727B",
"B c #6F7782",
"V c #757E85",
"C c #778381",
"Z c #788385",
"A c #778089",
"S c #7C858E",
"D c #80878D",
"F c #818B8F",
"G c #838C95",
"H c #8B939D",
"J c #92999F",
"K c #8E96A1",
"L c #99A2AB",
"P c #A2ADB3",
"I c #A8B4B2",
"U c #ADB6BF",
"Y c #B2BCC3",
"T c #B7C2C6",
"R c #BAC3CB",
"E c #C2CBD2",
"W c #CAD4D6",
"Q c #C7D0D9",
"! c #D0DBDD",
"~ c #CFD9E2",
"^ c #D5DEE5",
"/ c #EBF3F6",
"( c #F3FFFD",
/* pixels */
"+>+o$o $@@---:+%+%+++++++++;++-%%+* xyo+@@O@@@O@+o@++++#+#o#=#$o",
";O+& ps +@---O+%+-+-+++++++++++%+#o1^V #O@@@@@@@+o+++>++$##$ ##+",
";++$ yyX++@+:%%+O-++-+::+++++++%&o&#w=#+@@--O-@@+#++&+O&Xo#$j3@#",
"+;@o@o#+@+@@:%+#+++++%+++;+++++++oo& #=#O@-O--O@@+++@+o3mq jWyX@",
";O:+%o+#%;---:+%++++++++++++;++%@#@+@.#oO@@-;+++++++>+&qEq=oq@@=",
"-;+%+&&o+O+-:-%++++++-++-+++++-+o#o #@o&@@@@+@++++&++++32X;#oo+o",
";:;%++o+;+--:--:+++;;++++++++;+%>Xtlo+o@O@---+++@+@+++O+X@> ,@+#",
"-O>O&O,+@+++--:++++%:+++++:+++++@XxH##$@@---+@++@++++&#@>o>O+#o@",
"-++-+@@@+O+oz8;;53O:O<++++++++++@+#$%o%><>:-;+++>O>%o#+=O>O;@@@#",
"--;-;;+++&>o23>O83>>+>+O;+++++:%@++@%o#&>>+-:+++;+%o=+oX;O2OX1 o",
"++;+--@+oX ++O;OO+O++++%+++++;+;+o+##o+%+-O:-+++;OO#oo=+@@O;>o1&",
"+%+--;+++pB&#;O<++:+%+:++++:++++@+++%#+++---;++%-<+##*o+@>O@@oGU",
"%+%-;;;+ NT4 &>+>+>+:+%O+++-:+++++++##%+----O++:-O&o .#$@O2@# lD",
"+%+:;;++o&#o1O>O+O+O%+:++++++%>>;+++%##+-----++:::X7TV.#2X;OO@ #",
"%+%-;+@+&o#oX,;;:::+:++++++++::>;++%+%++-:--+++-++of!D=oO;O2@&#.",
"#%+%@@++o&&o&O>O++++;++%++++;+--++%++#%++++---+O+%o.0#o#+@O@+X#=",
"%+++%%%+;O++++##++:O+>-;+>o%&%O-+o%+++O%%%O:;>O:+#+##+#o%+:%#&#%",
"+%%#o#+%:+:+>#o+>O+>->O:$oo#O+>;%+%%%>+++%:>O:-++##+#%+%++%o+O+#",
"%+###+%oO+:O>+=&O@+++O>%&o>;%>O%%+O#:++++++:O:>+&+#+%o%%%%+o>+%+",
"+%%%+#%%::O>O+Xo&&O&#o&OO>OO>O%>o++%+O:+;+O+:-:-+++++%+%+%+O+#&O",
"%%o%#+%+O>-++$JaX+>$ *o#;O>;+%+++%%%+++++>%+:-+;++++%+#oo@@@O+++",
"+%%++#+#-O;;OXq3+>%.$#&oO-;-+>o&++%o;>O+O+>O-:O:-+--+%+#&oo+&>@;",
"%++%%#%+;+>@@@X@O+$#*...5k-;:O&&%+#+:%O58X>++:------++%%# 2X;;+-",
"+%%+#o%++++;o+=X;+$.yIy.-8->O>o##o>o+;+agOO%-:+----%+%o%#1g>;O--",
"%+%+%++++:-+O@#@O+%.C(h##O:--:Oo+%%%++++O:%+;::+-+:++o+oo=1>@@;;",
"+:+%+%+++---@@@+O<oo$0$$#----;#%#+%o++++++:++;-+:+O:,O*&X@@@O;-+",
"%+%+%++%+--+@O@#>+O*#.$o----:+#++%%%+-%+++%+-:+-+-;+O#oO+#++O--+",
"-%+%+%++----@#++O+>oo##+O--;>O%+%o%+++++;+++--:+%&##O,++@@+O@+@+",
"%-+%+%++-----O++&>O+%#+#:++:%%-%+%+%+:+++++;;++@Oo&o,X+@+---++++",
"+:%+%+++----;++#+++>++%%%+o%+>O+++#+++++++++-;++.MRw o1O++:%++%+",
"-:+:+%++---O++++>+O+O>:Oo#9#+++-+%+%%+++:++++++&#hJ7+>OO--::%%%%",
"%+%+%+++----;+++o>+%:O::o5g>+O+:+%%+-++-:O++--+&o#o &+;:--+++o+#",
"+:+:++-:-------+O,X%&o%o%++O@;@;+++++++++++%+++-+++%%+++++++;++%",
"+%#%++++-O+-----%O%+%o%&++O++;O@++++-++:++-+-+%+++++-+++;+++++++",
"o#oo+%+++++-:;++&o>#%%O#++++++@O+++%+-++;++++++++++++++++++++%+-",
"+%o&%%o&+++++-++o&#o%$+++%++--@O+++++++++++:++;++++%+++;+++--+++",
"&o&96#O#%+%+%+++&o#o++#:+-+-@@@@%+%+%%++++++++%+++++;+++++-++++-",
".#6~l 1oo%+#%%%+o *$#o%+++++@OX@o#+%%+++;+++++-+++++++++++++++++",
",o,t5o+&o++#%%:#4l=o&++-----O@O###%+%%%;++:+-+++++++++++-++%++%+",
"+X+oo>o%%%+++++oD/t.%:O----O@@@##%#%%%%++++++++%:++++++-%++-+++-",
"+#+%++-+++-+--+Olc3#=X>@-----O@#YxXO>#O:+%+O$>o%%++:+++;+-+++;++",
"++++++%+-+++--+O $  @+;O----+@O#md+#%%%:O:+,Oo>&;+++:++%++-+++++",
"++--+--------:-+=#=@+>>;----+@O+.o.#%::+++%+>&oo%++++++:+-++++%+",
";--+--+-++:;-+-%o @+O;+;+-++@+@O%&>>++++&%O+oo&%+++;+++++++%-++-",
"%++++++++++++++:;+::&O+++:+----++oOo++;:O%%%o, #+++++++++++++%+-",
"+++++%+%#++%%%+:+>OO>+:>++--++@++#,#%::O++&o#$ifo+:++++-+-++++++",
"+%%+%#%+%++o%+#++;-::-++++-O----%+%OO:;::O#>+#UP++%+++++%--+++++",
"%++%+%o%##o+&#+O--:-+%%++-++-++@:o:+>;O:++:o%#ydO+:+++-+++%+++;+",
"%++%%+#% fWM.#o#+:;+++++++-+@@O@+%+++++-+++##ooX#+;++++%-+++++++",
"%%%++%o#.eEM *o&++++++++;---+@@@o%:+:+--++++#@#o+++++++++++%-+:+",
"%%+%%+%o$.*&#o=o+++-;++;++++@@O++%+%:%+;O+o@@#@#++----+--+-----+",
"%%%++%%%.$o#$oX++++%++++@+++O@@++%O%+:O:@+@o@@#@+:-++:-----+++--",
"+%+%+%%+&.=o &+>+-+++++++@@oO@@#%%+%;>+;@+++@O##+--+---+-%+---:+",
"%+%+:-+%+&X@&oo++++++++%+O@###@o%+:%3+;+++++#@@@+----+-------+--",
"#++%-:++o,= @;;;-+%+++%++#+#@###%%:%1+++++++@oO@++++++++++++++++",
"#%%+%-++&O+@@O;@-;+++++%#@@&&&#@%:o:+&O@++@@@@@@+%+%+%+%+%+%+++%",
"#%-%+--++++#++;-+-++++%+#XaYj #&%++%++-+++-+@+@Oo+X+;=o@+%+oXo,#",
"%%++---+++%+;++--;+++-%%@XqH3#&#+%:+++++++++O@;@@o1@X##@o++6a= +",
"o%++----++&#++--;++++;%%@=+ o++o%%+%+++%-+++---;oXVL1#$o#&XjD +$",
"#%-O----++++++-++++;+++:@ >@$+&O++%+-++-++++---O=Xjno#X$##+o#1X@",
"o#++----++%%+#-++++++++;+;X@O+X2+-%+++%%++--;;--+oO ;1O@O#>+Oo=o",
"%%++--O-+++%++++;+++;+++@@@X><>O-:+%++%+@++-;;-O@#>OXX>@@>o;++@@",
"o%++----%+%o#o%+++;++++@;O;2OO-:+:%++++%++------2OO>;;O@@O+X2OO;",
"%%++---+-++%%%+%+++++++@;@;OO>+--++%++%++@-O---@@@2O@@;@;;+;+;;@"
};
