/* XPM */
static char *a793096c33504765998c74abb43cc121zKqA9op6VTiCBhgj[] = {
/* columns rows colors chars-per-pixel */
"32 32 131 2 ",
"   c None",
".  c #575523",
"X  c #664B20",
"o  c #714922",
"O  c #764B29",
"+  c #7A642E",
"@  c #8C5D2F",
"#  c #896028",
"$  c #967432",
"%  c #A47436",
"&  c #B07837",
"*  c #9B8019",
"=  c #B09423",
"-  c #A88635",
";  c #B78A39",
":  c #BA903A",
">  c #BA9939",
",  c #BBA53C",
"<  c #C9923B",
"1  c #D3973F",
"2  c #D8923F",
"3  c #CAA52E",
"4  c #C0A23D",
"5  c #D5A93E",
"6  c #D6B332",
"7  c #E1B138",
"8  c #EDC33C",
"9  c #F7CE30",
"0  c #F9CF32",
"q  c #F6C23F",
"w  c #F9C73E",
"e  c #F2D13D",
"r  c #FCD23F",
"t  c #B9B447",
"y  c #D2A440",
"u  c #D3AB40",
"i  c #EBA742",
"p  c #E4AB43",
"a  c #EAAD44",
"s  c #F4A644",
"d  c #FBA747",
"f  c #F5AD43",
"g  c #F9AC46",
"h  c #FCA448",
"j  c #FEAB4A",
"k  c #E6B143",
"l  c #ECB345",
"z  c #E5BC42",
"x  c #EBBF40",
"c  c #EBBE4B",
"v  c #F5B345",
"b  c #FCB347",
"n  c #F6BC45",
"m  c #FBBC46",
"M  c #F0B048",
"N  c #FDB349",
"B  c #FBBC4A",
"V  c #DCC44B",
"C  c #E6C043",
"Z  c #ECC545",
"A  c #EFC845",
"S  c #EAC24D",
"D  c #E7CE4D",
"F  c #ECCE4C",
"G  c #F5C545",
"H  c #FAC446",
"J  c #F4CD45",
"K  c #F9CC46",
"L  c #FCC449",
"P  c #F2CC49",
"I  c #FCCC49",
"U  c #EDD24E",
"Y  c #F6D346",
"T  c #FCD247",
"R  c #F1D14B",
"E  c #FDD349",
"W  c #FFDB49",
"Q  c #EBCC51",
"!  c #ECCF5C",
"~  c #E7D052",
"^  c #EDD351",
"/  c #EFD15A",
"(  c #F3DC56",
")  c #FADF56",
"_  c #FBEB5B",
"`  c #EED266",
"'  c #EED36D",
"]  c #E9CA7B",
"[  c #ECD374",
"{  c #E6D07E",
"}  c #EAD07B",
"|  c #E9D080",
" . c #EDDA83",
".. c #ECD78A",
"X. c #E3DA89",
"o. c #EBD29F",
"O. c #EDD89C",
"+. c #EEE099",
"@. c #EEDDA1",
"#. c #F0DFAB",
"$. c #EFE4A7",
"%. c #F0E6AF",
"&. c #EEE6B7",
"*. c #EFE4BB",
"=. c #F6EFB7",
"-. c #F5EDBA",
";. c #FDF7B9",
":. c #FDFCBA",
">. c #EEDEC3",
",. c #EFDCC3",
"<. c #F1DED0",
"1. c #F5EEC0",
"2. c #F8EDCA",
"3. c #F7F1C3",
"4. c #F7F7C3",
"5. c #FAF5C3",
"6. c #FAF4C5",
"7. c #FCF7C4",
"8. c #F8F8C3",
"9. c #FAFCC7",
"0. c #FBFFC6",
"q. c #FDFFC6",
"w. c #FCFDC8",
"e. c #FDFCCC",
"r. c #FCFCCF",
"t. c #F3E5DB",
"y. c #F8EDDF",
"u. c #FBF9DB",
"i. c #FBECEC",
"p. c #F7EFF3",
"a. c #FAEBF3",
/* pixels */
"                                                                ",
"                        z P J J J C                             ",
"                    4 n I K K H n L n z                         ",
"                    n K G G m n B B B n l ;                     ",
"                  k N H G H K I I I L L H G V                   ",
"                u f n P F ^ ^ U ^ ^ ^ R U U D V t               ",
"                v f M ~ Q Z k C c S Q S S Z C Z V .             ",
"              a f n v P c ..@.| Z w G G l ] o.} 8               ",
"              s s n K J %.q.:.u.>.R T R $.9.r.p.{ *             ",
"            u j j B T ' 6.;.-.*.a...0  .9.;.&.t.>.=             ",
"            a j j H T ' 6.;.=.=.i.O.9  .7.;.=.2.<.3             ",
"            M j g K T / 3.;.;.;.y.[ e / 8.;.;.e.#.6             ",
"            M g g H E e X.8.5.9.+.Y ( 8  .-.-.%.` 7             ",
"            l n g n E E J / ' ' Y E _ F K ^ / Y T a             ",
"            z E h g H E E T r T E E _ ^ T E E E E a             ",
"            z L m j g n K E E E E K _ ^ J E E T I a             ",
"            u j s j j j j I E E K Z Z P E E T I B p             ",
"              N j j j j j L E E E E E E E T E N j 1             ",
"              a j j j j b G Y J J P P A Z A P H N :             ",
"              , g j j j n Y Z G P J J K T K J J m +             ",
"                y j j j N G K E T E E E E E E m <               ",
"                  a j j N I E E E E E E E E E N X               ",
"                  , j j j L E E E E E E E E E p                 ",
"                    l j j N L E E E E E E E I 5                 ",
"                    4 N j j N E E E E E E E W >                 ",
"                      l j j N E E E E E E E W -                 ",
"                      , N j j E E E E E E E W $                 ",
"                        k j j L E E E E E E E #                 ",
"                          l j N I E E E E E m                   ",
"                            p j B I E E W E &                   ",
"                              % 2 s N L i @                     ",
"                                    o O                         "
};
