/* XPM */
static char *_4312_6f11e9bc702984e2e173faff4f6df0123fa3afaaf9357ccc3c41f4c2009accb5[] = {
/* columns rows colors chars-per-pixel */
"64 64 115 2 ",
"   c #040405",
".  c #060803",
"X  c #04060C",
"o  c #060D0D",
"O  c #0A0C0A",
"+  c #030714",
"@  c #040B15",
"#  c #090D14",
"$  c #02071A",
"%  c #050E1D",
"&  c #090E1B",
"*  c #041115",
"=  c #0D1216",
"-  c #04101D",
";  c #0A111C",
":  c #131317",
">  c #181816",
",  c #12151D",
"<  c #1E2418",
"1  c #262812",
"2  c #252619",
"3  c #060E21",
"4  c #080E21",
"5  c #050B29",
"6  c #0C0D29",
"7  c #031021",
"8  c #0A1221",
"9  c #0E1821",
"0  c #131721",
"q  c #151A24",
"w  c #191D24",
"e  c #161F29",
"r  c #1C1F2A",
"t  c #070B30",
"y  c #1D2027",
"u  c #17212A",
"i  c #1C222B",
"p  c #202020",
"a  c #23262C",
"s  c #27282A",
"d  c #2E2E2E",
"f  c #312D2D",
"g  c #2E302E",
"h  c #323625",
"j  c #31312E",
"k  c #222732",
"l  c #252B34",
"z  c #2C2D32",
"x  c #262E39",
"c  c #2B2E39",
"v  c #302F33",
"b  c #2F3134",
"n  c #273039",
"m  c #2D323B",
"M  c #333333",
"N  c #393A35",
"B  c #34353B",
"V  c #36393A",
"C  c #3C3D3C",
"Z  c #474224",
"A  c #42423F",
"S  c #353B42",
"D  c #3B3E43",
"F  c #3E4143",
"G  c #3E424C",
"H  c #434343",
"J  c #474843",
"K  c #4A4A46",
"L  c #42454B",
"P  c #464A4C",
"I  c #4C4D4C",
"U  c #4E514C",
"Y  c #52524D",
"T  c #424550",
"R  c #464A52",
"E  c #4C4E52",
"W  c #504F54",
"Q  c #4E5153",
"!  c #4E535A",
"~  c #545454",
"^  c #5A5755",
"/  c #565853",
"(  c #5A5A56",
")  c #53565A",
"_  c #5A565A",
"`  c #565A5C",
"'  c #5A5B5B",
"]  c #625E43",
"[  c #615D5A",
"{  c #57605D",
"}  c #5E605B",
"|  c #65674C",
" . c #6A684F",
".. c #656950",
"X. c #61615E",
"o. c #6E7152",
"O. c #555A62",
"+. c #5B5D62",
"@. c #5D6263",
"#. c #5C616A",
"$. c #636463",
"%. c #676863",
"&. c #6A6A67",
"*. c #636669",
"=. c #67686D",
"-. c #6B6B6B",
";. c #6A6E71",
":. c #8C8A71",
">. c #BFC19A",
",. c #CCCA99",
"<. c #E0DFAF",
"1. c #ECEAAF",
"2. c #E9EAB1",
"3. c #EAE9B9",
"4. c #F7F8BC",
/* pixels */
"% % % 3 % - & % % % ; % % % % % % % % % % % 3 @ 3 8 % % % % % % % % @ - - @ - 7 % % % 3 3 % % 3 % @ - % - % * @ & @ % @ & % & 3 ",
"% & % 4 % % % % % - % % % % % % % % % % % % @ 8 % $ 8 $ % - % % % - % - 3 - - 3 % 3 3 % 3 % % % % % - % * - % ; - ; & & % % 3 % ",
"$ 4 4 4 % % % % % % % % - % % % % % % % 7 % % 3 $ % % % 7 - * - - 7 % 3 3 3 3 % 3 % 4 % % % % % - ; @ @ @ @ @ @ X @ @ @ 8 % % 3 ",
"4 % 5 3 % % % % % % % % % % % % % % % % % % % @ % & % % - - - - - % - - 3 3 3 % 3 3 # % @ % @ $ @ % ; 9 e u x m n e ; % @ % ; % ",
"% 4 3 3 3 % % % % % % % % % % % % % % % % % % % 4 % % % % % 3 7 - - % 4 7 7 & % $ & # + + & 0 i z S R ! ) O.O.#.#.R x r ; @ % # ",
"3 3 & % % % % - % % % - % % % 3 % - % % % % % % % % % % - - % % 7 - & % @ @ + % % , w f D R ) O.+.@.+.+.O.) ` +.` D z B x i ; + ",
"% % @ - % % % % % % 3 % % % % - % % % % % % % % % % % % 3 % % 3 7 & $ # % 0 a B R ) +.+.' [ X.+._ ' ` ' ' ' ' ' _ B s M M B a w ",
"3 % @ - % % - % % % % % % % & % % % 3 3 % 3 3 % % 3 % % % 3 7 % % ; w m L ~ +.' [ ' ' ' _ _ ' ' $.[ ^ ^ ( ( ^ [ H j v z v z M M ",
"% - @ - & % % % - & % % % % 3 - - % 3 3 % 3 3 % % 7 % 3 3 & + ; a G O.+.+.' ' ^ ' ( _ / ' $.%.$.X.^ ^ ^ ^ [ [ Y M f M s M b g v ",
"% & - % % % - % % 3 % % % % & % @ - - % 3 3 3 3 3 3 % - # O p H ' ' ' ' ` ^ _ ' ' ' ' $.$.$.X.' ' ^ ' ^ ^ [ ^ C d d j M j f M M ",
"% % 3 % 3 % % % % % % - % - % % - % % 3 3 3 3 % % 8 & @ ; M / } ' ' ' ' ' ' ' ' X.$.*.$.X.' ' ' ' ^ _ +.[ U A N d j M d j b b g ",
"% % - % % % % - % % % % % % % % % % 7 3 3 % % % ; & @ u P +.$._ ~ _ ' ~ ' ' X.$.$.$.' ( ` ' _ _ ' ' $.[ J C C B j j N C C j j d ",
"% % % & % % & % % % % 3 % 3 % 3 % 3 3 3 % % - - + @ n ! @._ ` _ ' ' ' ( ' ' ' ' _ _ ' ' ' ( _ ' %.$.~ H C C B N C C H C C N M d ",
"% - % % % - % % % % % & % % % % 3 3 3 3 3 % ; o # B ` { ` ' ' / ' ' ' ' ' ' ' ` ` ~ ' ' +.$.%.-.$.U C N D N N C C C C C C C M d ",
"% - % % 3 % % % % % % - % % - 3 3 3 3 3 % & @ , F @.` ) ' ' ' ' ( _ ' ' ' ' ' _ ' ' $.$.-.&.+.~ I K H D N H C C C C C C C C N M ",
"% % 3 % 3 % % % % - % % % % % % 8 3 3 & @ @ , G #._ / { ~ ' ' ' ' ' ' _ ` ~ Y ~ ' -.$.$.~ Y I I W W I J D C C C C C C C C H C M ",
"% % % % 3 - % % % % % % % % % 3 8 % 8 ; @ y P @.` ^ ' _ ' ~ _ ' _ W U H H C C N A P W I I I I I I I I W K D C C A C C C C M v v ",
"% % % % % % % % 3 3 - % % 3 % % % 8 - @ i Q @.` ( ' ' ' X.' ^ I H A C C C C H C C A I I W I I I U I I U K D N C C C N C C M M f ",
"% % % 3 % % % % % 3 @ - % % 3 % 8 + + n ) { ) { ' ~ ' _ ~ J H C N C A C N C D A C C K I I I I W I I W I H N M M C C C C D N M f ",
"% % - & - 7 & - 7 - 7 7 % % % & + , S +.@.` ( ' ` _ ' U P H H P H D B M v M M N C C A K I I I I I I W K C M d M C D C C C C M d ",
"% % % % % @ @ @ - - - 7 & % @ & z I ' ' ) ( ' ' ' ' ' ' ` ' ' ' [ _ I N d M f M B C C H I I W I I I W K N f d f M C A C C C N v ",
"% % % % # % % - - - @ @ @ 0 c R ' ' ' ` / ` ' ' ' ' ' ' ' ' ' ' $.-.*._ C M d d M M C A K I I I I U W K B f v f v B N C C A N v ",
"% % % & % & ; - @ @ ; i D ) +.+.' ( ' ' ' ~ ' ' ~ ' ' ' ( ' ( _ X.-.-.-.%.I f f v f B C H K I I I I I I A v d d f M C C C D N v ",
"% % % 4 % % @ @ = n P O.@._ ' ' ' ' _ ( ' ' ' ' ' ' ' ' ' _ ` _ +.-.-.%.;.-.H v f v f M D J I I I I I W I H M d d M C C C C N v ",
"% % % % % 4 $ 0 L +.' ' ( ( ( ' ( ' X.' ' ' ' ' ' ' ' ' ' ' ' / ' $.&.-.$.-.' C M M f f N H I I I I I I I I H D M M C C C C N z ",
"% % 3 % 4 8 + b +._ / } ( ( ( ( $.-.-.X.~ ^ ' ' ' ' ' ' ' ' _ ' ' X.-.-.%.-.' C C B v f v N H I I P I W U I W K C C H C C C M f ",
"% % % 3 % - @ B @.` ' ( ( ( ' $.&.-.$.$.' ' ' ' ' ' _ ' ' ^ ' ' ' $.-.-.-.-.~ C C C C M z M C J I I I I I I I K A C C A C C M f ",
"% % % 3 7 - * S +./ / } X.' ' ' X.$.' _ ( ` ' ' ' / ' ' ' ' ' ' _ +.-.-.-.*.I C A C C C M v M C H K I I I I I I H C C C A M M b ",
"3 % 3 7 % % * S { / } &.&.*.@.` ( _ ' ( ( ' _ ' ' ' ' ' ' ' ' ' ' ' -.-.-.[ H C C C A A C B M M C H I I I I I P H C C C N M j j ",
"% 3 % 3 7 - @ S @.$.&.&.-.#.+.+.` _ ' ' ' ' ' ' _ ' ' ' ' ' ' ' ' ' &.-.-.~ C C C C C C C C C B C C H I I E ~ J F C C N M d d M ",
"% % % 3 % - @ S *.&.%.$.X.' ` ` ' &.*.' ' ' ' ' ' ' ' ' ' ' ' ' ' ' =.-.X.H N H C C C C C C C C C C C H U I K F C V N b d M f d ",
"& 3 3 % % @ % S @.} ( ( ( ( ' ' $.-.-.$.' ~ ' ' ' ' @.' ' ' ' ' _ $.-.-.I v C C C C C C C A C C C C C C H J F V N b b g d b M M ",
"% % % 3 3 $ # D ` / ( ( ' ' +.*.-.-.-.-.' ' ' ' ' _ ' ( _ _ ' ' _ $.;.' M v H C C C C C C C A C C C C C C C C V M g b M b M z z ",
"% % 3 3 4 + , G ' ( ( ( ' ' $.-.-.-.-.-.$.' ' ' ' ' ' ` ' ' ' ' X.-.%.A f N C C H C C C C C C C C C C D C C C N b g M z b m y # ",
"% % 3 % 4 + 6 E @.( ( ( ^ $.-.*.&.-.&.$.' _ ' ' ' ' ^ ' ' ' ' ' *.-.W d M C C D C C C C A D C C C C C C C C C M d z M M s w ; @ ",
"% % % 3 4 $ r ) { ( ( ( ' &.;.;.&.-.$.' ' ' ' ' ' ' ' ' _ ' [ $.-.$.N d B N C A C D C C N C C C H C C C C C N z d b b a q = @ % ",
"% % % 3 % $ c +.` ( } ( ( ' $.$.+.' _ ' _ ' ' ' ' ~ ' ' ' ' X.;.$.A d f B C C C C C H C M B C A C C C C C N M M M z r & @ & % % ",
"% % % 3 % % S *.' ' ( ( ' / ` ` ' ' ' ' ' ' ' ' ' ' ' ' ' $.-.-.K s f M N A C C C C N M v N C C C C A C M v m m k , @ # & & 4 3 ",
"% % 3 $ % % G -.@.( / ' ' ' ' _ ` ' ' ' ' ' ' ' ' ' ' ' $.;.-.K M M f M C C C C A C M f M C D A C C B j M z d e & + & % % 3 % 3 ",
"% % 3 4 3 - R #.` ( ( ( ' ' ` ` ' ' ' ' ' / ' _ ' ' $.-.-.&.J f d M f B C C C C C M M v N C C N B M f f d d 0 @ 8 7 % % - % 3 % ",
"% % 3 4 % & T +.` { ( ' ( ' ' +.' ' ' ' ' ' ' ' $.-.-.&.$.I B f M d d C C N C C N j j j B M j M M d g M s : @ % 3 3 3 - 3 3 % 3 ",
"% % % 3 % % T +.' ' ( ( ( ( ' _ ' ^ ' ' _ ' $.-.-.$.' ~ E I P F v d M C A C N N h f j j M v f v z b n u # % % % % % % % % % % % ",
"% % % 3 $ % G +.` ( ( ( ' ' ' ' ' ' ' $.$.-.-.$._ ~ I I I W W K C M M C C C N j j f j f f M M z B k , * @ - % % % % % % % % - % ",
"% % 3 3 4 $ D +.` ( ( ' ' ' ' ' ' ' $.-.-.$._ ( U I I W I I W W H C N A C C C N N h f f v z z M i ; @ % ; * % % % % % % % % % % ",
"% % 3 3 4 # B O._ } / ( ' ' _ ' +.&.-.' ~ I ( _ ' ~ K K I I I E K H C C C C C C A N v z M B s w * * @ - * % - % % % % % % % - % ",
"% % 3 3 4 $ c +.` ' ' ( ( ' +.X.-.&.~ C F ~ ' ' _ ' ~ E U U I I I H C C C A C C C N z M v z q # ; ; & * & - & % - % % % % % % % ",
"% @ % 3 4 $ c +.` / ( ( ^ ' X.=.-.W N C H E ' ' ' [ _ ) I I I Y E H C C A A C C N M M c a 8 % # % @ ; - - 7 3 % % % 3 % % % % % ",
"% 3 % 3 4 + c +.} ( } X.' X.-.-.' H C H C K ` ' ' _ ' ' ~ U I Y U H C A C C C C M z c e # @ % & % % @ % - - % % % % & - % % % % ",
"% % 3 3 3 % c =.;.-.&.%.$.$.$.@.H C A C C H ~ [ _ _ ' ' ( Y Y K U H C C N C D v d z q & @ % & % - * % % 7 % % % % % % % % % % % ",
"% % % 3 % % r ) $.' ( ^ Y U E I H A D C C C I ^ ' _ ' ' ( ( Y K U H C C H C M M s , % % % 8 3 % - % 3 7 % 3 3 % % - % 7 % 7 % % ",
"% % 3 3 4 $ 8 L ` ( / ( ^ U E E I H A C C C H W ' ' _ _ ( ( ( K I J C C C C M a : @ - % % % 7 7 7 7 - 3 7 - % % % 7 % 7 3 % 7 % ",
"% % 3 % 4 # # S ` ' ' ( ( ^ / ~ U I H D C C D I ' ' ' ' ( ( / Y Y J C C S C s = # & - 3 @ - % - 7 % 7 7 3 3 3 7 - @ @ @ % % 3 4 ",
"% 3 3 % $ & + i ) +.O.' ' ^ ( ( ~ W I H H C D H ` _ ' ' ( ( ( U I K C S D a @ @ & % % % 3 % % % % % % % % % 7 7 - * o # @ % 4 5 ",
"3 % % 3 % 4 % # S +.+._ ' ' ( ( ' / Y U J C C A Q / ' ` ( ( / I K J H S r % # % # % % % % - % & % % % % % 3 7 7 - - @ % & % 3 3 ",
"% % 3 % 4 3 4 + 4 S ! +.@._ ^ ' ( ( Y Y I K A A J Y / / / ~ K K ~ E B q # % & % % 4 % % % % % % % % % % % 3 7 3 3 5 5 4 - - - - ",
"% % % % 4 % 4 & $ # e m E +.+.+.} ' ( Y U I K I K Y U U U I E E ! D 0 # & % % 3 4 & % % % % % % % % % % % % - - 4 6 6 6 % - * * ",
"% % % 3 % % 3 4 % % $ # 0 c D ! ) ` ' ' ) Q P I E K I E R ! ! R c 8 & & 3 % 4 3 3 % % % % - & % % % % % % % * * @ X     @ @ - - ",
"% % 3 % 3 3 4 % % & % 4 # # 6 q y a x l l i q 0 q q r r k k k q # $ 4 % % 3 4 % 3 % % % % % 7 % % % % % - % #   2  .Z ] 2 O % 4 ",
"% % 3 3 3 3 % 3 % % $ % 4 % $ $ $ $ $ % % $ $ $ @ % $ $ % $ @ $ $ 3 4 3 3 % 3 % 3 3 % % % % % % % - % % % - = . ..3.2.,.1 X 4 5 ",
"% % 4 $ % % % % 3 % 4 % % % 3 4 4 % 4 3 3 3 3 3 4 3 3 % 3 3 3 3 4 4 3 3 3 3 % 3 % 3 % - % % % % % % % % % ; X > :.<.4.2. .X 4 t ",
"% 3 % % ; - @ % - 7 3 - % % % % 3 4 % % 3 3 3 3 % 3 % 3 7 3 3 3 7 3 % % % % % 3 % % % % % % % % % % 3 % % % 7 @ O | >.o.h o 3 5 ",
"% % % % - @ * & @ @ - % % % - % % % % % % - % % 3 % - % 7 % % 7 7 7 % - @ 3 % % % % % % % & % - % - - % % 3 7 5 o : < o O @ % 3 ",
"% - @ - - % - % - - - % - % - % - % 8 % - % % ; & % % % - - - - % @ % - % 7 3 % % 3 3 % % % % % % % % 3 3 % 3 3 - @ @ = @ - - - ",
"% % % % % % % % % - % % % % % % 3 % % % % % 7 % % % % % % % - @ - - - @ - @ 3 3 3 3 3 - % % % % % % 3 3 % 3 3 - - 7 - - * % % - "
};
