/* XPM */
static char *f746220ee75d46bbea1c1f2dc9e02e8e1RebMuKBkLtQqAhN[] = {
/* columns rows colors chars-per-pixel */
"32 32 224 2 ",
"   c None",
".  c #000100",
"X  c #000801",
"o  c #1B0206",
"O  c #06140B",
"+  c #0D1110",
"@  c #151714",
"#  c #37090C",
"$  c #390F13",
"%  c #0B210A",
"&  c #18270E",
"*  c #16290A",
"=  c #1C3B07",
"-  c #1F3D11",
";  c #3A2C2B",
":  c #2F372B",
">  c #383B37",
",  c #27480E",
"<  c #2E490F",
"1  c #224611",
"2  c #284312",
"3  c #2B4413",
"4  c #2A4612",
"5  c #2B4612",
"6  c #2D4B13",
"7  c #2E4D13",
"8  c #2C4E13",
"9  c #2E4F13",
"0  c #2E4B14",
"q  c #2E4F14",
"w  c #2C5513",
"e  c #2E5014",
"r  c #2F5014",
"t  c #2F5C14",
"y  c #305315",
"u  c #305414",
"i  c #305714",
"p  c #315615",
"a  c #315D13",
"s  c #325815",
"d  c #305D14",
"f  c #315E14",
"g  c #315F14",
"h  c #276107",
"j  c #2F6A0B",
"k  c #2D6C08",
"l  c #306B0D",
"z  c #31720A",
"x  c #3A710A",
"c  c #367A0B",
"v  c #367A0C",
"b  c #3C790F",
"n  c #346013",
"m  c #316015",
"M  c #326015",
"N  c #316314",
"B  c #336215",
"V  c #336415",
"C  c #336416",
"Z  c #346615",
"A  c #346516",
"S  c #346616",
"D  c #356716",
"F  c #356717",
"G  c #356815",
"H  c #366A14",
"J  c #376B14",
"K  c #376B15",
"L  c #356816",
"P  c #356817",
"I  c #366816",
"U  c #366916",
"Y  c #346D14",
"T  c #366C16",
"R  c #376C16",
"E  c #376D16",
"W  c #376D17",
"Q  c #386C15",
"!  c #386F15",
"~  c #386D16",
"^  c #386F16",
"/  c #386E17",
"(  c #386F17",
")  c #3E6C16",
"_  c #386D18",
"`  c #396E18",
"'  c #3B6E18",
"]  c #347210",
"[  c #387315",
"{  c #397017",
"}  c #397117",
"|  c #3A7116",
" . c #3A7117",
".. c #3A7216",
"X. c #3B7217",
"o. c #3B7317",
"O. c #3D7916",
"+. c #3C7817",
"@. c #3D7917",
"#. c #3A7118",
"$. c #3A7318",
"%. c #3B7318",
"&. c #3E7218",
"*. c #3B7418",
"=. c #3B7518",
"-. c #3C7618",
";. c #3C7718",
":. c #3D7818",
">. c #3C7918",
",. c #3D7918",
"<. c #3D7919",
"1. c #3E7918",
"2. c #3C7A18",
"3. c #3D7A18",
"4. c #3D7A19",
"5. c #3E7A18",
"6. c #3F7B18",
"7. c #3E7A19",
"8. c #3E7B19",
"9. c #3F7B19",
"0. c #3F7C19",
"q. c #49581D",
"w. c #417D08",
"e. c #416E14",
"r. c #446E1E",
"t. c #447D11",
"y. c #467F12",
"u. c #417916",
"i. c #407918",
"p. c #427A18",
"a. c #407C19",
"s. c #407D19",
"d. c #417D19",
"f. c #417E19",
"g. c #427F19",
"h. c #4C7D1A",
"j. c #45772C",
"k. c #48782C",
"l. c #4E7939",
"z. c #547338",
"x. c #445144",
"c. c #5F6D51",
"v. c #8F0B13",
"b. c #3C8202",
"n. c #478D03",
"m. c #45840F",
"M. c #50980C",
"N. c #4E8E13",
"B. c #4D8816",
"V. c #43811A",
"C. c #44811A",
"Z. c #45831A",
"A. c #46831A",
"S. c #46841A",
"D. c #48871B",
"F. c #49881B",
"G. c #4A881B",
"H. c #4B8A1A",
"J. c #4C8B1C",
"K. c #4D8C1C",
"L. c #4D8D1C",
"P. c #4E8D1C",
"I. c #4F8E1C",
"U. c #528D16",
"Y. c #4B9110",
"T. c #4C931B",
"R. c #519018",
"E. c #50901D",
"W. c #51911D",
"Q. c #52901C",
"!. c #51921D",
"~. c #52921D",
"^. c #53941D",
"/. c #54951D",
"(. c #55961E",
"). c #56971E",
"_. c #5A971A",
"`. c #56981E",
"'. c #57981E",
"]. c #58991E",
"[. c #589A1E",
"{. c #599B1E",
"}. c #599B1F",
"|. c #5A9C1E",
" X c #5A9C1F",
".X c #589F1E",
"XX c #4B8028",
"oX c #579626",
"OX c #5A9D26",
"+X c #629635",
"@X c #629B3C",
"#X c #79B42E",
"$X c #7DB832",
"%X c #658249",
"&X c #618C54",
"*X c #738E55",
"=X c #6B9350",
"-X c #67935B",
";X c #6E935E",
":X c #78A055",
">X c #668E68",
",X c #84A463",
"<X c #8CAB6C",
"1X c #96A97F",
"2X c #96B377",
"3X c #798F87",
"4X c #6F9484",
"5X c #759382",
"6X c #9BAB8A",
"7X c #ABBB95",
"8X c #B5C6A1",
"9X c #BECEAB",
"0X c #C4D3AF",
"qX c #CAD9B5",
"wX c #D6DEC9",
"eX c #DBEAC5",
"rX c #DFEBCC",
"tX c #E5EBD3",
"yX c #F7FDE6",
"uX c #FBFFEA",
"iX c #FFFFED",
"pX c #FFFFF4",
"aX c #FFFFF5",
"sX c #FFFFF9",
/* pixels */
"                                              u h.&.G           ",
"                                          - ' #X$XU.m.6.*.G     ",
"                                        1 z ] >X5X5X;XB.7.*.'   ",
"                                      = l =X:XN.M.'.-X3Xu.7.7.F ",
"                                      h 1XyXuX0Xy.R.n.&Xj.@.7.( ",
"                                    V c 7XpXiXwX8XrXqX+Xc 7.7.#.",
"                                  w [ ) e.,X<X*XpXtXsX6Xk 7.7.W ",
"                                3 Y * + z.w.b.Y.2XeX9Xk.+.7.7.V ",
"                                { 6.& . : c.l.XXx t.j b 7.7.-.  ",
"                              a @.T.r.> @ X # $ O , { 7.7.7.G   ",
"                            t H @.^..XoX%Xx.; v.o % G 7.7.;.    ",
"                          3 -.7.C.].}.}.}.OX@Xq.6 N @.7.7.Z     ",
"                          ( 7.7.K.|.|.}.}.}.K.@.7.7.7.7.#.      ",
"                        Z 7.7.S.].}.}.|.}.K.@.@.7.7.7.7.C       ",
"                      m 7.@.7.!.|.}.|.}.K.7.@.7.7.;.7.(         ",
"                    u ;.7.7.I.}.|.}.!.S.7.7.7.7.7.7.;.0         ",
"                  9 ( @.u.K.}.|.}.I.7.7.@.@.7.@.@.7.U           ",
"                q o.{ f.T.}.|.OXI.7.7.7.7.7.{ ( 7.;.            ",
"              y ;.7.a.K.|.|.}./.7.7.7.7.7.7.{ { ;.s             ",
"            m ;.7.;.C._.OX|.}.H.@.@.7.7.7.7.0.7.Z               ",
"          U 7.a.7.g./.|.}.}.!.f.7.7.7.7.-.@.7.(                 ",
"        G @.7.{ a.!.|.|.'.J.f.7.7.7.7.7.7.7.#.                  ",
"      a G 7.a.p./.|.OX_.C.@.@.7.7.7.7.7.7.7.e                   ",
"    Z o.( 7.G.].].|./.C.7.7.7.7.7.7.7.7.*.m                     ",
"  r 7.7.7.H.'.}.]./.V.@.7.7.7.7.7.7.7.;.u                       ",
"  ' 7.@.C.'.}.}.!.f.7.7.7.7.7.@.7.7.*.9                         ",
"8 7.7.7.!.].].I.7.@.7.7.@.a G 7.7.( 6                           ",
"t 7.+.7.V.H.C.7.7.7.7.7.7.H ;.7.W                               ",
"t 7.7.7.7.7.7.-.7.7.7.7.7.7.;.Z                                 ",
"3 { 7.7.7.7.7.7.7.@.7.7.7.#.q                                   ",
"  6 W ;.7.7.7.7.7.7.;.W N                                       ",
"        a V G G V d                                             "
};
