/* XPM */
static char *_0188_e7db2d5e9182bf150a9d53019b9dcc5567ec7b83b9a64026abdfd545bc9cf5b0[] = {
/* columns rows colors chars-per-pixel */
"64 64 189 2 ",
"   c #000104",
".  c #01020C",
"X  c #02090D",
"o  c #0A0E0F",
"O  c #05110E",
"+  c #0B130F",
"@  c #121A0B",
"#  c #010314",
"$  c #030C15",
"%  c #090D15",
"&  c #01051C",
"*  c #050E1D",
"=  c #090D1D",
"-  c #090617",
";  c #041115",
":  c #0B1314",
">  c #0D1A16",
",  c #05101C",
"<  c #0A121B",
"1  c #0D1C1C",
"2  c #121516",
"3  c #121C1B",
"4  c #141719",
"5  c #350200",
"6  c #0F270F",
"7  c #142F04",
"8  c #18320E",
"9  c #0F2417",
"0  c #132915",
"q  c #12241A",
"w  c #1C231C",
"e  c #172D18",
"r  c #1A2D19",
"t  c #163017",
"y  c #1C3B15",
"u  c #1A3319",
"i  c #1F3C19",
"p  c #23221F",
"a  c #27291B",
"s  c #020522",
"d  c #050D21",
"f  c #090E23",
"g  c #040C29",
"h  c #051121",
"j  c #0A1222",
"k  c #0E1923",
"l  c #05112A",
"z  c #0E1A28",
"x  c #131B22",
"c  c #141B2B",
"v  c #1A1E2B",
"b  c #1A1921",
"n  c #1F282F",
"m  c #1E2A2A",
"M  c #1E3620",
"N  c #182130",
"B  c #212727",
"V  c #262A26",
"C  c #292C25",
"Z  c #292E2C",
"A  c #242C2E",
"S  c #392228",
"D  c #2D3428",
"F  c #35362B",
"G  c #383E2A",
"H  c #232A32",
"J  c #2C3536",
"K  c #3D3E33",
"L  c #353937",
"P  c #450005",
"I  c #6A2B19",
"U  c #14400F",
"Y  c #25490F",
"T  c #22510D",
"R  c #244515",
"E  c #244A16",
"W  c #26441C",
"Q  c #264C1B",
"!  c #2A5417",
"~  c #2E5C14",
"^  c #2C581A",
"/  c #345D15",
"(  c #326A0F",
")  c #2F6416",
"_  c #346315",
"`  c #356B15",
"'  c #336419",
"]  c #346E19",
"[  c #3A6D1A",
"{  c #3A7414",
"}  c #3F7F17",
"|  c #3C7619",
" . c #3E7A1A",
".. c #367411",
"X. c #3D402B",
"o. c #384B38",
"O. c #3F4639",
"+. c #3C642F",
"@. c #407E17",
"#. c #417C1B",
"$. c #41731C",
"%. c #44482D",
"&. c #43433D",
"*. c #454B3B",
"=. c #4C4C32",
"-. c #5A5B3C",
";. c #487822",
":. c #48722A",
">. c #5A603A",
",. c #507E33",
"<. c #383B40",
"1. c #3E4547",
"2. c #4C4D45",
"3. c #454E4E",
"4. c #4E5148",
"5. c #565341",
"6. c #54554A",
"7. c #444E50",
"8. c #475059",
"9. c #515556",
"0. c #5D634C",
"q. c #696848",
"w. c #6C704F",
"e. c #72774F",
"r. c #6D6E54",
"t. c #63675A",
"y. c #7B7C5D",
"u. c #697756",
"i. c #6F7867",
"p. c #7A7863",
"a. c #747A71",
"s. c #439100",
"d. c #549E00",
"f. c #428315",
"g. c #478810",
"h. c #4F8F17",
"j. c #43821A",
"k. c #4A841A",
"l. c #4D8C1C",
"z. c #4C8417",
"x. c #508F1D",
"c. c #52931E",
"v. c #579A1C",
"b. c #5A9B1F",
"n. c #559817",
"m. c #5CA31A",
"M. c #518729",
"N. c #5B9D21",
"B. c #599628",
"V. c #598B32",
"C. c #619620",
"Z. c #619739",
"A. c #5EA022",
"S. c #64A12A",
"D. c #77B53A",
"F. c #648B45",
"G. c #7CB243",
"H. c #778065",
"J. c #7D8570",
"K. c #76957D",
"L. c #83C13C",
"P. c #838554",
"I. c #80A45A",
"U. c #85856D",
"Y. c #809C62",
"T. c #838673",
"R. c #918C79",
"E. c #8B967B",
"W. c #979779",
"Q. c #8EBB6A",
"!. c #A5A474",
"~. c #979985",
"^. c #AEAF87",
"/. c #A7AC8D",
"(. c #ABB495",
"). c #B1BF9E",
"_. c #8BA8A3",
"`. c #BFD7A5",
"'. c #C4CC91",
"]. c #EAEB9B",
"[. c #C2C3B3",
"{. c #D1D6B0",
"}. c #E3DAAF",
"|. c #D1E2BE",
" X c #E1E3B4",
".X c #D5DCC6",
"XX c #F7FEDF",
"oX c #F9FEE7",
"OX c #F8FAE9",
/* pixels */
"* d * <   * , * * * * * * * * * * * * * , * * , d d s D K $ * * * * * * * * d * * * ; d g , , d d * * * g * * * * * * * * * * * ",
"; * d $ 3.z * * * * * * * * * * * * * * * * * d , < . E.~.. j * * * * * * * * * * * g h ; X & % $ * * = $ $ * * * * * * * * * * ",
"* * = $ 1.k & * * * * * * * * * * * * * * * * * ; * & w 3 $ * * * * * * * * * * d d # $ $ F K $ h d f # 9.9.. j * * * * * * * * ",
"* * * = . * * * * * * * * * * * * * = * * * * * * d , $ & d * * * * * * * * , d d . &.4.  J.W.. l , g - F Z & j * * * * * * * * ",
"* * * = d * * * * * * * * * * * * * * , * * * * d d = d g * * * * * * * * * * d j   a.J.  3 v * ; , * = # X * * * * * * * * * * ",
"* * * = = * * * * * * * * * * * * * * * , * * * , g X & , , * * * * * * * * d ; , d % $ * $ * d * , , $ j d * * * * * * & < * * ",
"* * * * * s f * % * * * h , * * * * * * * * * * , $ *.A $ , h * * * * * * * , ; d = d d * * , d * * * * d d d d * * * * n < * d ",
"* * * * d * f * - * * * * & * * * * * * * * * , h . T.O.. d * * * * * * * * * d * * * , $ * * ; * * , * * * d * * * d * x * * * ",
"* * * , * ; % g - 7.v # N z & * * * * * * < * * * % % $ * * N = d * * * * , * * * * d * * * ; g g * * * * * * , * * d = & * * * ",
"* * * * d h $ f d k f $ N c & * * * * * * * * * * * = * * = z * * * * * * * d , * * * d * * ; d d * * * * * * , d * d d h * * * ",
"* , * * d h = . $ * * * & * < , * * * * * * * * * * d * * * * * * * * , * * h , * * * * * d * : o * * * * * * * * * < * d * * * ",
"d * * * * d & q.G & f * , * * h * * , * * * * * * * * * * * * * * , * * * * f s * * * * * l . p.W.. , * * * d * * :   $ = d h * ",
"d * * * , * # ^.0.# , , * * * * * * * * * * * * * * * * d * d * * * * * * * * 2 : * , , ; h # 5.y.# , * * * * * * 2 i.A & h d * ",
"* * * * * f * % * * * * * * , * * * * * * * * j j * * * d * * , d , * , * , # K -.= & , h d , & # j d * * * , h & p  X-.# , , d ",
"* * * * * * = & * * * * * * * * * * * * * * * j j $ * * * , , * * * d * * & r C.#.~ > s , * * , j * * * * d * < d - a : d , % d ",
", * d ; * * * * = * d * * * * * * * * * * * * * * * * * * * * * * * * , * 9 h.L.x.f.{ 3 s , * * * * d * * d d $ * = $ * h , * d ",
"* * * * * * * * * * * * * * d * * * * * * * * * * * * * * * * * * * * d < ..M._.K.Z.f._ * * * * * * * * * d d ; * d d g , ; d d ",
"* * * * * * * * * * * d * d * * * * * * * d * * * * , * * * * * * * h * y [ :.v.V.K.j.f.u s , * * * * * * * * * d * , * * d d * ",
"* * * * * * * * * * * * * * * d d * , * * * * * * * * * * * * * * * , < ) (..XV.s.,.+.f.W & < * * * * * * , * = g * ; $ * g , ; ",
"* * * * * * * , * f % : * d % d g g ; ; * * * * * * * * * * * * * h s 6 Z.XXOX~.J.G.` j.~ s * * * * * , * * * * = * * * * d * * ",
"* * * * * * * * f # L a.# j ; ; O $ g s * * * * * * * * * , $ * d * & / k.{..X`.XX`...f.] * d d * * * * * * * * * * d * * * * * ",
"* * * * * * * * * & x B * d ; , : * d $ h * * * * * * * d % X * , * 9 _ k.S.:.(.oX).( j.E & * * d * * * * * , * * * , * * * * * ",
"* * * * , * * * * * $ $ * d , s . s x J * , * * * * * * d * H % $ - ' 7 L D.d.F.|.F...j.y * , * * * * , , * * * * * , < * * * * ",
"* , * * d * * * * * * * * d # G W.q * v * * * * * * * * * : 8.k & q #.Y   u.Q./ g.{ } } o.f * f d , * * * * * * * * & j j * , * ",
"* * * * * * * * * * * d , h # r.}.p * * * * * * * * * * * * # * - W l.z.K > S @ / #. .| m ; , * d * d * * * * * * * * * * * * * ",
"* * * * * * * * d * d d ; * * b a & * * * * * d * * * * * * % d < / j.n.I.1.5 P U j.j.! $ ; , d d , * * * d < * * * * * * * * * ",
"* * * * , * * * * * * d d * * * & * * s * * , d d * * * * * = & i } j.N.v.M.-.I T #.@.i s , * * * * * * * * * * * * * * * * * * ",
"* * * * * * * * * * * * * * * * h * * * = * * * * * * * * d * d `  .x.N.N.m.N. . . .#.k * s * * * * * * * * * * * * * * * * * * ",
"* * * * d * * * * * * * * , * * , , * h h * * d d , * * * , * e @. .c.N.N.N.}  . .#.' * * * , * * d , * * * , * * * * * * * * d ",
"* , * * * , * * * * * * * * * * * * , & & f d * * * * * * , & / j.j.N.N.N.l.|  . .j.y s * * * * * * * d * * * * * * * * * * , d ",
"* * * * * * * * * * * , * * * * * * * j 3 & * d * * , * , s q  .| l.N.N.N.#. . .#.| < * ; h , * * d * * h d * * * * * * * * d h ",
"* * * * * * * * * * * * * * * * * j $ H O.# h d * * f * , * ~ }  .N.N.N.#. . .| j.^ s , * * * * * d d < j d * * * * * * * * * h ",
"% ; * * * * * * * * * * * * * * d * % * * , * * * * d , * 1  .{ x.N.N.#. . . .| j.u s , * * * d , d , $ & * = * * * * * * * d * ",
", * * d $ * , , * * * * * d * * * * * * * * * * * * = * * ~ ..j.N.N.x.| #. . .#. .1 * , * * * * * < s C q.d * * * * * * * * * d ",
"; g d , ; , * * * * * * , * * , * * * * * * * * * * , s e @. .B.N.N.#.| #.} _ @.! & , * , * * * d : & p.].4 * , * * * * * * * f ",
"* d # $ , d * * * d , * * * * * * * * * * * * h * , * 1  .| j.N.N.v.#. . .$.| @.0 s , * * d * * d < s B =.s d * * * * * * * * * ",
"* * Z w * d * & * * , d * h * * , * * * * * * * * , s E j.| x.N.N.l.|  . .| j.' * = * * * * * * d d , * # d ; * * * * * * * d * ",
", . (.0.# j * * * * * < - # d * * * * * * * * * < & 0 f. .@.N.N.N.j. . . .| j.u s * * * * * * , * * ; = d d * * * * * * * * * f ",
"d $ V 3 * d * * * * * & C %.$ d , * * , * * * f & x #. .{ c.N.N.k.|  . . . .| < * * , * * * * * d * * * * * * * * * * * * * * f ",
"* , & & * * * * * = j . R.{.$ * * * * * * * * * < R @.{ #.b.N.l. .}  .} | j.i * , d , * * * * * * * * * * * * * * * * * * * h = ",
"* * h * d * d , * * * & &.6.* * * * * * * * * & o.$.` j.N.N.N. .|  . . . .[ , d * , * * * h * * * * * * * * * , * * , * * * * f ",
"* * * ; * * * * * * * l X X * * * * * * * * , s R j.| c.N.N.k.|  . . .| } y & , * * * * * * * * * * * * * * * * * * * * * * * d ",
"* * * * * * * * * * h g ; d * * * * * * , , * < ]  .j.N.N.x.|  . . . .} ;.j * * * * * * * * * * * * * , * * * * * * * * * * d * ",
"* * * * * * , d * * * d * d * * * * * * * , s 0 j. .x.A.c.@. .#. . . .#.q d , * * * * * * * * * * * * * * * * * * * * * * * * d ",
"* * * * d = * * * ; d * * f , , * * * * * , s E j. .N.A.j.|  .#._ | j.8 # < d d * * * d , * * * * d * d * * * * * * * * * , * f ",
"* * * * * = $ % * , * * * * * * , * * * * j & R j.| l.} |  . .| ~ j.Y &.C $ , * d * * * * * * = , ; ; g = * * * * * * * * * * * ",
"* * * * h ; , g g ; * * * * * * d * * * * , & R j. .| | #. . .| j.` : '.r.& ; $ * d * * * * * , * , * * d d * * * * * * * * * * ",
"* * , * * ; g % % * * * * * * * * * * * * * s Q j.| #.#.#. .{ #.@.1 $ G B s g * , d * * d * * * d * $ , d f * * * * * * * * * * ",
"* * * d $ d & P.!.# f * * * * * * , * , * * * < { j. . .|  .j.} t & f s * ; g * * * * * * * * , d = $ h $ # = * * * * * * * * d ",
"* ; * * * = # e.^.- * * * * * * * * * * * * d * 3 ` } } j. .' 0 & < d % * ; o * * * , * * * * * * * * * C &.& , * * * * * * * * ",
"* * * * * ; * * < $ , * * * * * * * d * * * d , * * u 8 y e & & , d * $ * g = * * * * * * * * * * * h # r.T.. , * * * * * * * , ",
"* * * * * * , d s , h * * * * * * * * % d d * d d , s & & * , * , d * * d * * * * * * * * * * * * * d d < : * * * * , * * * * * ",
"* * * * * * * * = * , * , * * * * * d * * f $ , d * * * * * * * * * * * * * * ; * * * * * * * * * * , & * * * * * * * * * * * * ",
"* * * * , * * * d * * * * * * * * * * h ; ; , * * * * c < * * * * * * * * * * * * * * * * * * * * * d d * * * * * * * * * , * * ",
"* * * * * * * * * * * * * * * * * * d d h ; d d * * * f = * * * * * d * * * * * * * * * * * * * * * * * * * * * * * * * * * * * ",
"* * * , * * , d , * * * = * , * * * d * % ; d g * * * * * * * * d * * * * * * * * * * * * j d * * * * d * * * * * * * * * * h < ",
"* * * * * * * * * * * * * , * * * * h . W.p.. f * * * , , * * * , * * , = * * s * * d * h $ # * * d * * * * * * * * , * d , * # ",
"* * * * * * * * * * * * * * * * , * j . t.*.. d * * * * * d * , * * * , h * + + = d * d & J H $ j * * * * * , * * * d * j & 3 3.",
"* * * * < d * * * * * * * * * * * d * * # $ d * * * d * * * * * d d d ; , # U.U.# h * f # t.2.# j d * * * * , * d * d $ d - F (.",
"* * * * * * * * * * * * * * * * = h * * , j * * * * , * * * * * * * * $ d & 2.6.# h ; * = X $ * d * * * , % * * * d * * * s f 4 ",
"* * * * * * * * * * , d * * * * = d * * * * * * * * * * d * * * * d * * * h . . d h * * % * g d * * * * * * * * * * h h ; h * * ",
"* * , * * * * * * * * * * * , * * * * * * * * * * * * * * * * * * * * * d s f < d ; , * * * g g ; * * * * d , * * , $ & d , ; * ",
"* * * * * , * * * * * * * * = * * * * * * * * * * * * * * * * * * * * d * * d d $ , d d * , h d % * * * * * d * , & V w s , * * ",
"* * * * * * * * * * * * * * * * * * * * , * , * * * * * * * * * * * * d ; ; h g * * d d * ; , d = * * * , d * h < . /.w.. h d * "
};
