/* XPM */
static char *_ed61aac2edd454ed0b307fed98c9f60INETKo5nV3CrF9E2[] = {
/* columns rows colors chars-per-pixel */
"32 32 203 2 ",
"   c None",
".  c #007A0C",
"X  c #007B06",
"o  c #03840C",
"O  c #0B830C",
"+  c #078B0C",
"@  c #0C8B0D",
"#  c #0C8804",
"$  c #138A0E",
"%  c #1A8B0E",
"&  c #019303",
"*  c #09940A",
"=  c #0E9A0C",
"-  c #0D9B05",
";  c #12930E",
":  c #139C0D",
">  c #1A990E",
",  c #1A990B",
"<  c #058412",
"1  c #0F9917",
"2  c #1B9513",
"3  c #109F10",
"4  c #199614",
"5  c #28950F",
"6  c #218D11",
"7  c #209617",
"8  c #239D10",
"9  c #299C11",
"0  c #3A9A11",
"q  c #03A90C",
"w  c #09A30D",
"e  c #15A10D",
"r  c #13AB0D",
"t  c #1AA70B",
"y  c #0FB306",
"u  c #13B50E",
"i  c #1ABB0E",
"p  c #1AAD10",
"a  c #19A311",
"s  c #1FB610",
"d  c #23A20F",
"f  c #29B80F",
"g  c #26A511",
"h  c #2BA313",
"j  c #24AE13",
"k  c #2DAC12",
"l  c #26A51E",
"z  c #35A615",
"x  c #34AB13",
"c  c #3BAC11",
"v  c #25B213",
"b  c #25BC11",
"n  c #2CB711",
"m  c #34B313",
"M  c #3BB314",
"N  c #31B913",
"B  c #38BA13",
"V  c #36B31A",
"C  c #2C9C26",
"Z  c #339A37",
"A  c #37A425",
"S  c #33AE31",
"D  c #47A914",
"F  c #51AA11",
"G  c #42B714",
"H  c #45BB15",
"J  c #4DBB17",
"K  c #41BB1A",
"L  c #4CB715",
"P  c #55B917",
"I  c #69B915",
"U  c #4BB322",
"Y  c #47BC24",
"T  c #55BD27",
"R  c #47BB32",
"E  c #5EB836",
"W  c #14C30E",
"Q  c #1CC10D",
"!  c #1BCC0D",
"~  c #15C203",
"^  c #18C313",
"/  c #22C608",
"(  c #2BCA0F",
")  c #27C805",
"_  c #31C70E",
"`  c #20C51F",
"'  c #29C617",
"]  c #34C411",
"[  c #3AC414",
"{  c #31C914",
"}  c #3DCB13",
"|  c #3FC31B",
" . c #32C81C",
".. c #3DCA23",
"X. c #32C728",
"o. c #40C50D",
"O. c #5FCA0D",
"+. c #46C415",
"@. c #4BCC14",
"#. c #44C919",
"$. c #4BCA1B",
"%. c #49C717",
"&. c #55CD15",
"*. c #53C51B",
"=. c #54CA1D",
"-. c #5BCE1A",
";. c #5BC818",
":. c #4ED015",
">. c #53D415",
",. c #5ED216",
"<. c #57D01C",
"1. c #69D40C",
"2. c #79DB06",
"3. c #61CD1B",
"4. c #65C415",
"5. c #77CF1B",
"6. c #78C918",
"7. c #71CB14",
"8. c #69D214",
"9. c #6BD21B",
"0. c #62D016",
"q. c #73D613",
"w. c #70D418",
"e. c #7DD919",
"r. c #40C821",
"t. c #4BCC24",
"y. c #49C22A",
"u. c #59C120",
"i. c #57CD26",
"p. c #5ACC2D",
"a. c #57C426",
"s. c #5BD020",
"d. c #4AC030",
"f. c #52C433",
"g. c #66D12A",
"h. c #7DDA23",
"j. c #7AD62B",
"k. c #7DD82B",
"l. c #78D425",
"z. c #68CB37",
"x. c #60D037",
"c. c #68D637",
"v. c #73D537",
"b. c #52B54C",
"n. c #60BC4C",
"m. c #58CD4D",
"M. c #65C548",
"N. c #70CD4F",
"B. c #70D14F",
"V. c #79D861",
"C. c #91DD0F",
"Z. c #89DA12",
"A. c #82D71C",
"S. c #84D91D",
"D. c #8EDC1D",
"F. c #85DA16",
"G. c #98DB1B",
"H. c #97E308",
"J. c #9DE10F",
"K. c #95E217",
"L. c #A6E61C",
"P. c #BCF11F",
"I. c #84D622",
"U. c #83D827",
"Y. c #8BDB26",
"T. c #8CDA2B",
"R. c #84D52A",
"E. c #95DE25",
"W. c #93DA2C",
"Q. c #9ADC2D",
"!. c #93D627",
"~. c #8BDB39",
"^. c #82D93F",
"/. c #92DE32",
"(. c #96D939",
"). c #92E121",
"_. c #9BE137",
"`. c #A7E023",
"'. c #B7ED2E",
"]. c #C1F21D",
"[. c #C3F523",
"{. c #D8EE3C",
"}. c #8ADB43",
"|. c #90DB4B",
" X c #88D956",
".X c #95DC52",
"XX c #ABE649",
"oX c #ADE159",
"OX c #ABDE73",
"+X c #BFE962",
"@X c #ACE37D",
"#X c #BFEB7F",
"$X c #C8ED6E",
"%X c #96D18F",
"&X c #A2CF9E",
"*X c #A1E181",
"=X c #B2E481",
"-X c #BDE5A0",
";X c #D2EB9B",
":X c #DBF59E",
">X c #E9FB89",
",X c #EAF4C3",
"<X c #FFFBFD",
/* pixels */
"                                                                ",
"                                                                ",
"                        H 0.9.9.3.3.*.                          ",
"                      T T.(.,Xv.t.i.j.I.                        ",
"                      t.&.8.}..Xg.#.x.W.S.                      ",
"                    | X.' &.>.i.-.[ [ W.U.-.                    ",
"                  *.*Xm.~ } x ; x o e c.+X:.T.                  ",
"                  $.' Q N u O 0 I z X 1 ).~.k.                  ",
"                p.#.^ d.f r F 7.4.&.p o P ).D.                  ",
"                (.t.] ] u % 9 G +.%.:.u > 5.e.S.                ",
"              !.T.} &.W n D 9 : c ,.H 9.9 N 8.!.                ",
"              (.=.{ } W G % + + 9 4.M %.I a 0.Y.                ",
"              l.<.%X' i D e B $ + . x M 6.a %.A.                ",
"              9.9.N...N 9 b 8 O $ @ c M M q ] W.                ",
"              j.OX) i g s b % $ > [ N m j q J (.T.              ",
"              9.Y.3.e O Q N 9 8 = * p P x q a.Q.W.              ",
"              Z.P.S.O % ( c 0 B ;.d z E.M w &.k.E.              ",
"              D.[.E . d ( t P >.j k T #Xi.B -.`.G.              ",
"              h.].A X : ! , m B p * z.N.o.B 3.{.Q.              ",
"              2.>X&X# : ! , D o.+.i..Xy m = s./.U.              ",
"              S.'.R $ > p n 6 K.1.O.t $ 9 G j.oXC.              ",
"              w.L.Y Z 2 : @.@ L :X X- z ; *.$X/.                ",
"              S.J.B < > m 9.*.= R p.#.m 2 +.j.Y.                ",
"              -.$XR.& $ K =.S.J m V J % d V g.S.                ",
"                j.K.a.+ z K @.x z z z h - b.j.                  ",
"                r.}._.M.C 7 m a g U j 3 7 T =.                  ",
"                  t.q.XXc.C C S l v g 4 P h.                    ",
"                  v &.,./ V.b.% A & # U h.;.                    ",
"                    >.] ` _ c.f.d.@X=X|.Z.                      ",
"                      G.<.'  ...c.-X<X;X                        ",
"                          G.q.Z.L.2.H.                          ",
"                                                                "
};
