/* XPM */
static char *_9219_36f5fd70d95f4f194d128c85bd3cc355ff138039b42fbd1e672bbb858a047fa6[] = {
/* columns rows colors chars-per-pixel */
"64 64 256 2 ",
"   c #000204",
".  c #00020C",
"X  c #02090C",
"o  c #0A0E0F",
"O  c #07130D",
"+  c #010314",
"@  c #030C15",
"#  c #01031C",
"$  c #050E1D",
"%  c #090E1D",
"&  c #0A0D15",
"*  c #041115",
"=  c #0B1315",
"-  c #05111C",
";  c #09121D",
":  c #0C1B1C",
">  c #051E1B",
",  c #131A1A",
"<  c #0A2719",
"1  c #17241B",
"2  c #153819",
"3  c #0E3115",
"4  c #26241E",
"5  c #23371A",
"6  c #010322",
"7  c #050D21",
"8  c #090E23",
"9  c #040C29",
"0  c #050929",
"q  c #051122",
"w  c #091122",
"e  c #091627",
"r  c #161B27",
"t  c #18272A",
"y  c #272B28",
"u  c #353A2A",
"i  c #3A3A31",
"p  c #2C3432",
"a  c #403D36",
"s  c #1A471A",
"d  c #1B5719",
"f  c #2B441B",
"g  c #3A5819",
"h  c #2E5318",
"j  c #017D06",
"k  c #1E6B19",
"l  c #376618",
"z  c #2B7619",
"x  c #2F5022",
"c  c #2A6A20",
"v  c #40571F",
"b  c #49771C",
"n  c #557718",
"m  c #44473A",
"M  c #44482D",
"N  c #607E36",
"B  c #383B40",
"V  c #3E4347",
"C  c #464D49",
"Z  c #545445",
"A  c #4E514F",
"S  c #5D634C",
"D  c #686A57",
"F  c #707251",
"G  c #76786A",
"H  c #04830B",
"J  c #0B850B",
"K  c #0D8A0C",
"L  c #058804",
"P  c #128C0D",
"I  c #188B0E",
"U  c #099709",
"Y  c #14940D",
"T  c #1B930E",
"R  c #139C0D",
"E  c #1A9C0C",
"W  c #178B14",
"Q  c #189812",
"!  c #0F8814",
"~  c #24930E",
"^  c #25990C",
"/  c #398819",
"(  c #239312",
")  c #239A13",
"_  c #2C9D12",
"`  c #2B9516",
"'  c #2C9712",
"]  c #0BA809",
"[  c #12A50D",
"{  c #1CA30C",
"}  c #19AC0C",
"|  c #0AB807",
" . c #14B60C",
".. c #18BB0B",
"X. c #18A811",
"o. c #18B311",
"O. c #23A80E",
"+. c #25B508",
"@. c #33BC0B",
"#. c #25A212",
"$. c #2CAC14",
"%. c #26A715",
"&. c #3AA413",
"*. c #33AA13",
"=. c #3BAC14",
"-. c #36A617",
";. c #2CB413",
":. c #2DBD13",
">. c #25BA13",
",. c #35B413",
"<. c #3CB314",
"1. c #35BB14",
"2. c #3CBC14",
"3. c #39B719",
"4. c #39AD0E",
"5. c #38992F",
"6. c #389B38",
"7. c #219022",
"8. c #38AA28",
"9. c #1EA323",
"0. c #4A961A",
"q. c #669715",
"w. c #46AC15",
"e. c #43BB15",
"r. c #49B718",
"t. c #57BB19",
"y. c #50AF13",
"u. c #65B917",
"i. c #6DAF1A",
"p. c #4B9227",
"a. c #44A23B",
"s. c #4EB429",
"d. c #6AAF2B",
"f. c #1BC40C",
"g. c #17C409",
"h. c #1BC213",
"j. c #0CC009",
"k. c #23C40E",
"l. c #28C40A",
"z. c #3BC90A",
"x. c #28C613",
"c. c #3BC414",
"v. c #3CCA13",
"b. c #35C514",
"n. c #3BD10E",
"m. c #39C629",
"M. c #34C92F",
"N. c #47CA0D",
"B. c #56CD0A",
"V. c #43C415",
"C. c #43CA13",
"Z. c #4BCD15",
"A. c #43CB1A",
"S. c #4BCB19",
"D. c #48C416",
"F. c #53CC16",
"G. c #53CC1A",
"H. c #5CCC1C",
"J. c #56C419",
"K. c #4AD316",
"L. c #5CD11B",
"P. c #57D316",
"I. c #4CD00A",
"U. c #68D70C",
"Y. c #66CB18",
"T. c #76C918",
"R. c #65D31A",
"E. c #6BDD1C",
"W. c #68D518",
"Q. c #73D41D",
"!. c #79D819",
"~. c #72D308",
"^. c #71E511",
"/. c #48CA27",
"(. c #55CC24",
"). c #5AD427",
"_. c #4ACD37",
"`. c #59CA38",
"'. c #4FD239",
"]. c #66CD26",
"[. c #75CA23",
"{. c #68D628",
"}. c #79D625",
"|. c #7BD739",
" X c #67CC3C",
".X c #6EE023",
"XX c #51E314",
"oX c #579247",
"OX c #56B149",
"+X c #68B659",
"@X c #7B836B",
"#X c #4DC946",
"$X c #68D244",
"%X c #6CD257",
"&X c #7DDB5B",
"*X c #73CE4C",
"=X c #7FE041",
"-X c #75D766",
";X c #83B90A",
":X c #82C915",
">X c #83DC1B",
",X c #87D71A",
"<X c #97DE1D",
"1X c #8CDE0D",
"2X c #98E60C",
"3X c #87E41B",
"4X c #98E718",
"5X c #A9E914",
"6X c #B5EB16",
"7X c #A7F110",
"8X c #B3F313",
"9X c #ADED0A",
"0X c #86D827",
"qX c #8ADA39",
"wX c #98DB39",
"eX c #95D52A",
"rX c #A4DF36",
"tX c #89E424",
"yX c #95E724",
"uX c #88E438",
"iX c #97E436",
"pX c #A4E422",
"aX c #B6E928",
"sX c #ADEE37",
"dX c #C1F236",
"fX c #E3F331",
"gX c #919279",
"hX c #949564",
"jX c #88DD55",
"kX c #92D64B",
"lX c #96E140",
"zX c #8AE047",
"xX c #A7E745",
"cX c #A6E357",
"vX c #BAED52",
"bX c #B4E948",
"nX c #8AD679",
"mX c #92D46D",
"MX c #93E772",
"NX c #B4E666",
"BX c #A7E774",
"VX c #C4EE6C",
"CX c #EEF649",
"ZX c #979985",
"AX c #A9AD8B",
"SX c #ADB198",
"DX c #B3EA89",
"FX c #B2E6A8",
"GX c #CCF090",
"HX c #E5F28F",
"JX c #D7EFB1",
"KX c #E7EFAF",
"LX c #DDD9AB",
"PX c #FCFAFB",
"IX c #F6F5E5",
"UX c #E2F2C3",
/* pixels */
"@ $ 7 = . $ $ $ $ $ $ $ $ $ $ $ $ $ $ $ $ $ - 7 $ q 6 u i @ 7 q $ $ - - 7 $ - $ $ $ $ q 9 - q 7 $ 7 $ @ w 7 $ $ $ $ $ $ - 7 $ $ ",
"- 7 7 @ C r @ $ $ $ $ $ $ $ $ $ $ $ $ $ $ $ 7 $ @ w . gXZX. q - - - ; - - $ $ - % 8 q 7 * X + $ @ % $ ; @ $ 7 $ $ $ $ 7 $ $ $ $ ",
"@ $ 7 @ V e $ @ $ $ $ $ - $ $ $ 7 $ $ $ $ $ 7 7 $ $ @ 1 r @ # 6 # # # # 7 - - $ 8 8 + + @ u i & q 7 8 + A A + w $ $ $ @ - $ $ $ ",
"$ $ $ % + $ @ $ $ 7 $ - $ $ $ $ - $ $ $ - $ $ $ $ 7 7 @ @ # > d d d s 2 < # # q 8 # x Z   @XZX  q 7 8 # i y # w $ $ $ $ $ $ $ $ ",
"$ $ $ % 7 $ $ $ $ $ $ $ $ $ $ $ $ % $ $ $ $ $ $ $ 9 7 9 0 d t.U.E.E.R.H.r./ < 6 e   G @X  , r @ * - $ $ + X q @ $ $ $ $ % $ $ $ ",
"$ $ $ % % $ $ $ $ q $ 7 $ $ $ $ $ $ $ $ $ $ $ $ @ 7 X # k E.!.wX0X0XQ.R.uX.XY.2 6 $ % o @ $ 7 7 @ - % @ 7 8 $ $ $ $ $ 7 @ 7 7 $ ",
"7 $ $ % $ 7 0 $ @ 7 @ $ 7 7 $ $ $ $ $ $ $ $ $ % q X i x jXiX!.JXJXR.G._.A.Q.tXi.% 7 w 7 7 - - 7 7 $ - - 7 7 7 $ @ 7 $ @ t ; $ 7 ",
"$ $ $ $ 7 $ 8 $ & & $ $ $ @ $ $ $ $ $ $ $ $ $ $ 7 X G *X0X0X}.NXPXmXA.$Xz.%XqXtXb # - @ - - $ - q $ $ 7 $ $ 7 $ - $ 7 % r - $ $ ",
"$ $ $ $ q @ & 8 # C r # t e 0 w $ $ $ $ $ $ $ - = & 3 G.b.Z.Q.R.}.|. XI.Z./.mX>X<X5 # w $ - - 7 7 7 $ - $ 7 $ $ 7 $ $ 7 @ @ 7 $ ",
"$ $ $ $ 7 7 @ 8 7 r w @ r r @ $ q $ $ $ $ $ 7 @ - # k m.M.l.F.B.tXNXlXQ.C.N.L.iX>XE.l # q - - - 7 - @ $ @ $ - - q 7 7 7 7 7 7 $ ",
"- $ $ $ 7 q %   @ $ $ q @ $ 7 $ $ % - 7 $ $ $ $ 6 2 ..| `.x.R.G./.M.N.!.v.x.].rX,XQ.P.2 6 q $ o & $ $ $ 7 - $ $ $ - ; % $ 7 $ $ ",
"7 $ $ $ $ 7 & S i # 7 @ 7 $ $ q $ $ $ @ $ $ - 7 - &.MX%X..k.P.R.F.l.:...[ o.F.!.xX[.}.d.# q . G gX+ w $ $ $ 7 $ @ ;   @ ; 7 7 - ",
"$ $ $ - - % @ AXS . 7 - $ $ $ $ $ 7 $ $ $ $ - $ p.).UXnX| x.v.c.~ T w.&.j P ..$XKX].v.wX, 9 + Z @X+ w $ ; $ $ 7 $ , G p # q $ 7 ",
"$ $ $ $ $ $ $ $ $ $ $ $ $ $ $ $ $ $ - $ 7 $ # s ).(.#Xh.k.>.k.[ H j w.-.J P L M.vX5Xc.E.v # ; @   ; $ $ 7 - $ q # , KXZ + - @ 7 ",
"$ $ $ $ $ $ w # $ $ $ $ $ $ $ $ $ $ $ $ $ - @ / K.v.j.g.c.;. .J ! ' ~ ,X_ H P U P.,XNXuXi.# % w 7 $ 7 $ $ 7 $ - $ o 4 O 7 * % 7 ",
"- $ $ $ $ $ $ % $ $ 7 $ $ $ $ $ $ $ $ $ $ $ e c.K.n.g.m.-.v.o.H T.8Xu.2XQ.U J j y.<X0XaXT.: # - $ - $ $ $ 7 7 & % 7 + 7 q - % 7 ",
"$ $ $ $ $ $ $ - $ $ $ $ $ $ 7 $ $ @ $ $ - # s ).(.g.x.%Xo.f.} -.T.e.c.S.V.x.[ K Q pXL.2XyX5 # - $ $ $ $ $ 7 7 - $ 7 7 9 q - $ $ ",
"$ $ $ $ $ $ $ $ $ $ $ 7 $ 7 $ $ $ q $ - - 6 / BX$Xj...F.n. .T &.j =.(.2.S.F.b. .K :X!.!.4Xb # $ $ $ $ $ $ 7 $ @ 8 7 - q $ 7 7 $ ",
"$ $ $ $ $ $ $ $ $ $ $ 7 $ $ $ $ 7 - $ - $ > t.>XG.b.b.b.f.R W W =.L.L.K.Z.S.v.o.U w.}.!.yXi.# $ $ $ $ $ $ $ - $ 0 - * @ $ 7 $ - ",
"$ $ $ $ $ $ $ $ $ $ % = $ 7 % $ 9 9 - * # g xXwXn.G.L.x.| 2._ *.r.E Y %.A.V.Y.Z.%._ P.R.}.u.; 7 $ $ $ $ $ $ $ $ $ $ $ @ $ $ $ - ",
"$ $ $ $ $ $ 7 - w + i G + w * * O & 9 q # l sX|.x.L.Z.k.| y.t.#.P U T T.R.+.i.0Xe.( b.P.<XkX1 7 - $ - $ $ $ $ $ $ $ 7 $ $ - 7 - ",
"$ - $ $ $ $ $ $ ; # r t @ 7 - - * 7 7 @ + p.sXI.k.G.v.g.k.t.( J K Y I T.>Xc.) R.R.` o.P.<X>Xf 6 w $ $ $ $ $ $ $ $ $ $ $ # - $ $ ",
"$ $ $ $ $ $ $ $ $ 7 @ @ 7 7 7 # . 0 r p # d.xXn.m.v.v.j.v.&.H K T I J H &.W.R ,.1Xw.} G.!.3Xg # ; - $ $ $ $ $ $ $ $ $ % $ $ $ $ ",
"$ $ $ $ $ $ $ $ @ $ $ 7 $ 7 X u gX, ; t # y.3Xv.FXs.g. .<.=.J ,.2.K K P j w.$.,.>Xu.%.V.Q.tXg # w - $ $ $ $ $ $ $ $ $ w w $ - $ ",
"$ $ $ $ $ $ $ $ $ $ 7 7 $ q . F LX4 $ $ , T.tXN.DX-X| ] J.y.U F.E J P P K Y $.w.T.<.U b.}.4Xv # ; 7 - $ $ $ $ $ $ $ $ $ $ $ $ - ",
"$ $ $ $ $ $ $ $ 7 $ $ 7 - $ $ r 4 % 7 $ ; t.0XB.OXDXj.>.r.P } D.J P K K H _ H.*.t.X.] >.}.tXg 6 - $ $ $ $ $ - $ $ $ $ $ $ $ $ $ ",
"$ $ $ $ $ $ $ $ $ $ 7 $ 7 $ $ $ @ - $ $ $ <.3X].k.Q.h.V.*.U f._ J ! K T R ^ J.O.e.[ ] x.R.VXp.# w - $ $ $ $ $ $ $ $ $ $ $ $ $ $ ",
"$ 7 - $ $ $ $ $ $ $ $ $ $ $ $ - 7 $ - # ; Y.NXJX..x...*.$.h.k.( J K J ,.K.O.V.O.e.R  .o.Q.iXd.0 - ; $ $ $ $ $ $ $ $ $ $ $ $ $ $ ",
"$ $ $ $ $ $ - $ $ $ $ $ $ - $ $ $ $ 7 $ r Y.zXcXI.k.} J $.g.:.-.P P P } 1.} @.,.*.Q ] 5.bX4Xi.% $ ; $ $ $ $ - % $ $ $ $ $ $ $ 7 ",
"$ $ $ $ $ $ $ $ $ $ $ $ $ $ $ $ $ $ $ # < T.R.0X|.@.R I O.j.A.~ &.( } K Y ] <.t.*.{ | -.wXbXi.% # q $ $ $ - $ $ $ $ $ $ $ $ $ 7 ",
"$ $ $ - $ $ $ $ $ $ $ $ $ $ $ $ $ $ - 8 v W.,X5X0Xr.U J [ f.C.~ w.E b.! Y U =.Q.t.E | n.!.0XwX, $ q $ $ 7 7 $ $ - $ $ $ $ $ 7 q ",
"$ $ $ $ $ $ $ $ - $ $ $ $ $ $ $ $ 7 @ r oX~.6X9X1Xw.J J 3.x.D.~ w.} !.r.R Q y.4Xc.Q ] Z.Q.uXi.% $ 7 - $ w 7 $ $ $ $ 7 $ $ $ $ - ",
"$ = @ $ @ $ $ $ $ $ $ $ $ $ $ $ $ $ = # h 3X6XvXcX` H T D.l.=.~ T.2.Y.r.c.J.d.vX(.2. .J.{.lX:X% $ q - @ # & % % $ $ $ $ $ $ 7 $ ",
"@ - 7 7 - $ $ $ $ $ $ $ $ 7 $ $ $ $ - # s ^.9X8XkX! K E S.f.{ T !.Z.>.K r.@.jXGX/.W.k.(.,X6XeX< # % 6 y S 8 % % $ $ $ $ $ $ $ 7 ",
"- 9 q q - @ $ $ $ $ $ $ $ $ 7 - $ $ $ 6 3 uXaX8Xr.L K Q k.f.{ Y K.C.>.[ ] R cXBXf.R.A.G.>XfX,X1 $ = # G HXr $ - $ $ $ $ $ $ $ 7 ",
"- 7 + X - 7 $ $ $ $ - $ - $ $ $ $ $ ; 6 s ).5X8Xd.W K Y ..f.#.I K.$.1.{ ! } BX`.l.J.$.z.eXCX0X1 # - # y M 7 7 - $ $ $ % $ $ 7 % ",
"$ # y 1 @ 7 7 $ $ 7 $ $ @ w $ $ - $ $ # 2 R.2XHXDXj H Y ..h.} T P.1.$.C.2.MXmX] b.s.U P.rXsXqX< 0 q - 7 # - @ q $ $ - $ $ $ $ 7 ",
"$ X SXS + w $ $ $ $ $ - # + 7 $ $ $ $ $ : T.yXKXIX6.K K h.k.{ W Y.v.D.N.(.BXy.| 2._ ] ).(.,XT.1 # - * 7 q 7 q $ $ $ $ $ $ $ $ % ",
"w @ y , $ 7 $ $ $ $ % $ y M @ 7 @ $ 7 $ : t.7XaXnX6.7.U  ...:.j u.^.W.Q.F.I.l.K w.W e.U.`.VX,X1 $ = @ $ @ - $ - $ $ $ $ $ 7 $ 7 ",
"- q # @ $ $ $ $ $ 7 % . gXLX@ $ q $ $ $ ; u.yXpXI.L j Y R [ C.Y &.9XN.B.T.) L T =.K R.~.vXvXq.# - w 7 $ 7 $ $ 7 $ $ $ $ $ @ w 7 ",
"@ 7 - 7 $ 7 - $ $ $ - @ C Z $ $ $ $ $ $ # 0.yXaX].7.5.Y _ U K.O.j :XaXlXY.{ J =.) R U.zXGX1Xl # - $ $ $ $ - - $ $ $ $ $ $ % $ 7 ",
"$ $ $ - $ $ $ - $ $ 7 9 X . $ 7 $ $ $ w # 0.2X5X*Xa.+XL *.U K.2.J E DXPXjX+.-.r.! 3.U.GXxX3Xx # ; $ $ $ $ $ 7 $ $ $ $ $ $ $ $ w ",
"$ $ $ $ $ $ $ $ $ $ $ 9 @ 7 - $ $ $ $ - 6 b 4X5XZ.] J K 1.Q [.R.%.J %.jX$XV.Z.2.Y ,.(.qXiX}.1 # ; $ $ $ - $ $ $ $ $ $ $ $ $ 7 $ ",
"$ $ $ $ $ $ 7 7 $ $ $ q - 0 @ - $ $ - ; # l 2X1X{.X.K K e.2.L.0XP.;.) +.K.G.K.,.P 2.C.V.iXu.$ $ q $ $ $ $ $ $ $ $ $ - 7 $ $ $ 7 ",
"$ $ $ $ $ % @ @ - @ $ $ - 0 @ $ $ 7 $ - # h tXbX>X-.Q H =.C.Z.}.0XV.$.#.E 3.*.J J 2.O.F.yXb # ; 7 $ $ $ $ @ $ $ $ % $ $ $ - $ 7 ",
"$ $ $ $ 7 % = % $ - $ $ @ - % $ $ % $ ; 6 2 uXUXvX@.R ! #.s.S.L.[.t.t.s.a.Y.t.H { <.9.}.tXf # ; $ - $ 7 7 = $ $ $ $ $ $ $ $ $ $ ",
"$ $ $ $ $ * - 9 9 - - $ ; $ $ $ $ $ - - # < r.4XaXW.| U ^ s.e.S.G.) &.{.D.=.T %.;.Y nX}.0X1 6 7 7 - - $ 7 7 $ $ $ $ $ $ $ $ $ $ ",
"$ $ - $ $ - 9 & & $ 7 $ 7 $ $ $ $ $ - q - # 0.K.~.wXjXa.L w.$.S.A.2.L j L E 1.=.P H +XE./ 6 % $ 7 % @ $ 9 7 $ $ $ $ $ $ $ $ $ $ ",
"$ $ $ $ @ 8 # hXhX# 7 $ $ $ $ $ $ 7 $ $ - # f K.=X0XcX`.U W ) 2.Q ) 2.2.).c.W Y R P D.(.< # ; $ $ % $ $ + . $ $ $ $ $ $ $ $ $ 7 ",
"$ $ $ $ @ 7 + F AX$ $ $ $ $ $ $ $ $ $ $ $ ; + c DX0X~.kXGX^ 7.8.O.L P O.*X-.] X.5.[.yX0.# ; $ $ $ $ q @ y m @ $ $ $ 7 $ $ $ $ $ ",
"$ $ $ $ - * $ $ = @ 7 $ $ $ $ $ $ $ $ @ $ - $ e ,.{.}.kXcX/.6.j 3.'.] U ]  .>.! T 0XY.< 6 ; $ $ $ $ 9 + D gX. w $ $ $ $ $ 7 $ @ ",
"$ $ $ $ $ $ $ 7 & $ % $ $ $ $ $ $ 7 - - 7 7 @ 6 k n.,X0XB._.%X( oXOX6.%X| U OX7.t.yXz # ; $ $ $ $ $ 7 - ; = $ $ $ $ $ $ $ $ $ - ",
"- $ $ - $ 7 $ $ $ 7 - $ - $ @ w $ $ $ $ q 7 * # 2 b.W.W.A.+.%XFX9.j a.5.L j ! s.,X3Xs # - % - $ $ $ $ $ @ 7 $ $ $ $ $ $ $ $ $ $ ",
"$ $ 7 $ - $ $ $ 7 $ $ $ $ $ $ $ $ $ - 7 - - ; @ > e.b.G.k.| $X).).$.L } +.s.r.}.!.s.$ $ - - $ $ $ $ $ 7 # $ $ $ $ $ $ $ $ - $ $ ",
"$ $ $ @ $ $ $ $ $ $ % $ $ $ $ $ $ $ $ 7 q * 7 $ # n XX..m.#Xg.I.&X X2.&XcXNXlXW.4Xf 6 % # - $ $ $ - $ $ $ $ $ $ $ $ $ $ $ $ $ $ ",
"$ $ $ - $ $ - $ $ $ $ $ $ $ - $ $ $ $ 7 @ O 7 0 $ % i.U.S.h.g.).$XjX'.mXIXPXIXKXeX, # $ $ ; q - $ $ $ 7 - $ - $ $ $ $ $ $ $ - w ",
"$ $ $ $ $ $ $ $ $ $ $ $ $ $ $ $ $ $ q . gXG . q - $ % n 4Xn.h.b.b.h.F.}.BXPXPXGXb # $ & 7 + # q $ 7 - $ $ $ $ $ $ $ $ $ $ ; $ + ",
"$ $ $ $ $ $ $ $ $ $ $ $ $ $ - $ $ - w X D m X q $ % % # g 3XzXb...C.,XzX(.qXsX;X, $ - 7 # p y + w $ $ $ $ $ - $ $ 7 $ q q # , C ",
"$ - $ $ $ $ $ $ - $ $ $ $ $ % $ $ $ $ $ + + q $ $ $ $ ; # 1 ;X6X7X6X8X8X9X2XdXG # q @ 7 + D C + 8 7 $ $ $ @ @ - $ $ 7 @ 7 + i SX",
"$ $ $ $ 7 - $ $ $ $ $ $ $ $ $ $ $ 7 $ $ w $ $ $ $ $ $ $ ; 7 6 g q.b f f f 5 Z Z + q * $ w X & $ 7 $ $ $ % q - $ $ 7 $ $ @ 8 8 ; ",
"$ $ $ $ $ $ - % $ $ $ $ $ $ $ $ $ $ $ $ $ 7 $ $ $ $ # - $ $ $ # # # # # # 6 . X $ $ - $ @ - 7 9 - $ $ $ - $ $ $ 7 $ q - - q $ $ ",
"$ $ $ $ $ $ $ $ $ - $ $ $ $ $ $ $ $ $ $ $ $ $ $ $ $ $ - $ $ $ ; ; ; q - ; w 8 8 7 $ $ $ @ $ 9 7 @ ; $ $ $ $ 7 $ $ - @ + q - * $ ",
"$ $ $ $ $ $ $ $ $ $ $ $ $ $ $ - $ $ $ $ $ $ $ $ $ $ 7 $ $ $ $ 7 $ $ 7 $ $ - 7 7 - $ 7 7 7 = 7 7 % $ $ $ $ 7 $ $ $ @ y r 7 - @ 7 ",
"$ $ $ $ $ $ $ $ $ $ $ 7 $ $ $ $ $ $ - $ $ $ $ $ $ $ $ - $ $ $ $ $ $ $ q @ @ 9 7 $ @ 7 7 7 - - $ % $ $ $ - $ 7 $ % + AXF . q $ 7 "
};
