/* XPM */
static char *c61a93f6a3a448ab9a515b6d88035c43IspMImwkEupISXzY[] = {
/* columns rows colors chars-per-pixel */
"32 32 199 2 ",
"   c None",
".  c #000B00",
"X  c #0F3D0F",
"o  c #123E0E",
"O  c #122E1B",
"+  c #083111",
"@  c #233F11",
"#  c #1C372A",
"$  c #15441D",
"%  c #1C571D",
"&  c #24410C",
"*  c #39500C",
"=  c #25451A",
"-  c #285819",
";  c #1A4E26",
":  c #104F2F",
">  c #1E5C2D",
",  c #135529",
"<  c #0D4429",
"1  c #3C5220",
"2  c #196836",
"3  c #1E743B",
"4  c #1E793F",
"5  c #1A793A",
"6  c #296B28",
"7  c #36682C",
"8  c #3A792D",
"9  c #246B34",
"0  c #2D6C36",
"q  c #277439",
"w  c #227C3D",
"e  c #2C7E3C",
"r  c #227636",
"t  c #327131",
"y  c #337C39",
"u  c #387735",
"i  c #464E22",
"p  c #585620",
"a  c #406E27",
"s  c #447225",
"d  c #42762B",
"f  c #4B7A2A",
"g  c #5A7527",
"h  c #437836",
"j  c #637C38",
"k  c #384E52",
"l  c #345150",
"z  c #3E5D76",
"x  c #525F4D",
"c  c #5B744F",
"v  c #446555",
"b  c #6C784E",
"n  c #687356",
"m  c #445F6C",
"M  c #467064",
"N  c #4C6573",
"B  c #1C803D",
"V  c #2B873D",
"C  c #27853E",
"Z  c #3B863A",
"A  c #3B8D3C",
"S  c #36823A",
"D  c #3C903B",
"F  c #588A1F",
"G  c #4D832F",
"H  c #438C3A",
"J  c #4A8635",
"K  c #548B35",
"L  c #4B933A",
"P  c #47963A",
"I  c #5B9735",
"U  c #549A3A",
"Y  c #5C9C3A",
"T  c #55933A",
"R  c #6B883D",
"E  c #649333",
"W  c #639B3B",
"Q  c #63983A",
"!  c #769D3C",
"~  c #7C9A3B",
"^  c #75943A",
"/  c #708528",
"(  c #5FA33B",
")  c #5BA239",
"_  c #6FA229",
"`  c #62A33B",
"'  c #6CA23A",
"]  c #65A83B",
"[  c #6CAC3A",
"{  c #6BA336",
"}  c #74AA3D",
"|  c #72A13F",
" . c #6EB63B",
".. c #7CB33D",
"X. c #7EBD3E",
"o. c #74B537",
"O. c #7FC33C",
"+. c #238540",
"@. c #2C8342",
"#. c #368442",
"$. c #4D8A4D",
"%. c #458854",
"&. c #528352",
"*. c #599C49",
"=. c #699643",
"-. c #769643",
";. c #788C45",
":. c #76A142",
">. c #7AB741",
",. c #6FA453",
"<. c #64A447",
"1. c #7B916B",
"2. c #858625",
"3. c #84A236",
"4. c #8DAA3F",
"5. c #8AA538",
"6. c #8BBA37",
"7. c #80BC3D",
"8. c #8EB53F",
"9. c #96B938",
"0. c #84C33C",
"q. c #87C83F",
"w. c #8CCC3E",
"e. c #88C63F",
"r. c #8DD03F",
"t. c #87994B",
"y. c #879453",
"u. c #8EA444",
"i. c #86A345",
"p. c #99A349",
"a. c #82BB46",
"s. c #9BA755",
"d. c #ACAB4A",
"f. c #B4B651",
"g. c #A5BB48",
"h. c #889D63",
"j. c #859869",
"k. c #939E66",
"l. c #889D76",
"z. c #919D7D",
"x. c #92A47E",
"c. c #99A371",
"v. c #9AAB68",
"b. c #A9AE72",
"n. c #B6B873",
"m. c #89C644",
"M. c #91CE47",
"N. c #9ED157",
"B. c #B1C647",
"V. c #BFC77D",
"C. c #C6CB51",
"Z. c #C8C969",
"A. c #C5CC7A",
"S. c #597988",
"D. c #6C8C85",
"F. c #718783",
"G. c #79958E",
"H. c #628799",
"J. c #7C9D9D",
"K. c #7D9F93",
"L. c #648DA4",
"P. c #6E95A8",
"I. c #6B94A8",
"U. c #7397A2",
"Y. c #729BAE",
"T. c #769FB2",
"R. c #739DB8",
"E. c #79A0AB",
"W. c #76A1B4",
"Q. c #7BA5B9",
"!. c #7FAEB5",
"~. c #7CAAC4",
"^. c #7DABCB",
"/. c #76A5C5",
"(. c #7DB2CB",
"). c #7EB5D1",
"_. c #87A086",
"`. c #8AA697",
"'. c #9FB99E",
"]. c #A7BC8D",
"[. c #90AFA9",
"{. c #80A4B1",
"}. c #8CB2B8",
"|. c #8EB0B2",
" X c #89B4C9",
".X c #80AEDE",
"XX c #86BAD3",
"oX c #84B2DC",
"OX c #86BDDC",
"+X c #87BFE0",
"@X c #8CC3DB",
"#X c #8DC2E1",
"$X c #93CAE7",
"%X c #9AD2EB",
"&X c #8BC5F2",
"*X c #8CCAF9",
"=X c #92CEFB",
"-X c #9AD4F6",
";X c #9FDAF9",
/* pixels */
"                                                                ",
"                                                                ",
"                                                                ",
"                                ; ;                             ",
"                                9 9                             ",
"                O               r 3                             ",
"                  9 @         v f.t.k                           ",
"                  g s.1.~.H.W.=XZ.A.+X  T.S.  1 &               ",
"                m W.XXE.-XI.^.=X].n.+Xz ).Q.^.}.x               ",
"              S.W.@X#XQ. X_.x.b.v.f.[.l.[. X~.$XH.~.            ",
"            Y.@XT.T._.d.4.6.6.3.a p.g 9.5.5.c.}.W.%XY.          ",
"        S.$XL./.    - A { Y m...W u h B.H ` E g   ~.Y.XXW.      ",
"        @X;Xh.* F t 2 U ~ 4.u.-.4.8.y '  .I ) ,       $XXX      ",
"        R.n d.:.O.V H { W e 3 R | M.( y e.K [ 4 t 9 o # U.      ",
"              f [ w U w.Z A ..i.&.m.[ w o.K ` @.H A 6 X         ",
"                7 w ( m.e [ <.%.#.>.U 4 ` E W +.H G             ",
"                  2 ` w.Z U $.,.N.a.#.4 ] w.U +.S               ",
"                  : U r.] q K $.*.#.q @.O.0.S +.T J <           ",
"                f Z A q.m.Y e @.e h 9 <.M.) +.C [ L t >         ",
"              f G K 4 ( q.[ X.O.e.' ' m.O.S @.e 7.L >           ",
"                = d e V ' I y U U P f O.P q 0 L q.7             ",
"                    $ @.V ` { i.u.W ..H 4 K w J 0.=             ",
"                    i S 5 -.^ Q | g.-.=.~ =.5 f ' t             ",
"                  N  X;.d 7 Z Q 3 Q 7.! 0 C.^ G.M -             ",
"                . c P.U.z.t.j / o. ._ 7 R h.J.-XH.              ",
"                    (.OX/.G.J.`.s.p.[.K.Q.L.(. Xl               ",
"                      b !.OX^.*X].V.}. XoX@XF.                  ",
"                          D.J.+X'.n.$X}.k.l.2.                  ",
"                            p y.p.j h.=.Z %                     ",
"                                + , 6 6 $                       ",
"                                                                ",
"                                                                "
};
