/* XPM */
static char *_8289_bfebc68ccb636b039538105324068878a58ae4ea1d6457a0f22cd483aae98687[] = {
/* columns rows colors chars-per-pixel */
"64 64 214 2 ",
"   c #04090F",
".  c #0D0D0F",
"X  c #020615",
"o  c #040B16",
"O  c #0A0C14",
"+  c #01061A",
"@  c #050E1D",
"#  c #0A0D1B",
"$  c #110C18",
"%  c #041015",
"&  c #05101C",
"*  c #0B121C",
"=  c #0D1517",
"-  c #131315",
";  c #12131C",
":  c #151B1D",
">  c #1A1B1E",
",  c #19161D",
"<  c #060D21",
"1  c #090D21",
"2  c #020925",
"3  c #041021",
"4  c #0B1222",
"5  c #0B1526",
"6  c #131622",
"7  c #141A23",
"8  c #1A1C23",
"9  c #131C2A",
"0  c #1A1D29",
"q  c #211F28",
"w  c #201D30",
"e  c #1C2225",
"r  c #1B2429",
"t  c #1A2534",
"y  c #1B2635",
"u  c #242626",
"i  c #252429",
"p  c #262B2C",
"a  c #282828",
"s  c #33282B",
"d  c #2C332C",
"f  c #33322E",
"g  c #343629",
"h  c #222C3C",
"j  c #282A32",
"k  c #352B31",
"l  c #2A3237",
"z  c #323332",
"x  c #3A3432",
"c  c #3A3C3A",
"v  c #353837",
"b  c #452B2D",
"n  c #433333",
"m  c #483D39",
"M  c #593836",
"N  c #582A2D",
"B  c #6B3E38",
"V  c #3D4234",
"C  c #3E423A",
"Z  c #46473A",
"A  c #50433F",
"S  c #5B453C",
"D  c #6B453D",
"F  c #253243",
"G  c #2C3747",
"H  c #303A47",
"J  c #2F3E51",
"K  c #313F55",
"L  c #453445",
"P  c #5E3B47",
"I  c #683E46",
"U  c #3A4347",
"Y  c #394658",
"T  c #3E4E61",
"R  c #494944",
"E  c #544844",
"W  c #575846",
"Q  c #475359",
"!  c #525851",
"~  c #7A4945",
"^  c #68574B",
"/  c #79574D",
"(  c #744A52",
")  c #7D5753",
"_  c #69524B",
"`  c #5D604B",
"'  c #5E6158",
"]  c #64664D",
"[  c #606559",
"{  c #676958",
"}  c #7B6354",
"|  c #7D6558",
" . c #766257",
".. c #74775B",
"X. c #70734E",
"o. c #445364",
"O. c #46566B",
"+. c #4B5A6F",
"@. c #4F6176",
"#. c #546579",
"$. c #797865",
"%. c #726F70",
"&. c #714C6D",
"*. c #894C44",
"=. c #844C48",
"-. c #8A5349",
";. c #93544C",
":. c #96564C",
">. c #895A52",
",. c #965A53",
"<. c #A1594D",
"1. c #AA5C54",
"2. c #846A5B",
"3. c #886758",
"4. c #96665B",
"5. c #98725E",
"6. c #A6645B",
"7. c #AB705E",
"8. c #8E5966",
"9. c #905C68",
"0. c #A05F73",
"q. c #A15A62",
"w. c #876F63",
"e. c #98636E",
"r. c #947663",
"t. c #9B7A65",
"y. c #9A6579",
"u. c #917669",
"i. c #B06762",
"p. c #A87868",
"a. c #B4776C",
"s. c #A46973",
"d. c #BD7B74",
"f. c #A76A73",
"g. c #C37E7D",
"h. c #7E836C",
"j. c #898A5E",
"k. c #818466",
"l. c #93966C",
"z. c #8A8977",
"x. c #A7836B",
"c. c #B8866E",
"v. c #A78876",
"b. c #B28C74",
"n. c #B78B75",
"m. c #BA957A",
"M. c #BF997E",
"N. c #B49177",
"B. c #AE937E",
"V. c #B1B276",
"C. c #C6887A",
"Z. c #C4977C",
"A. c #5B6D84",
"S. c #5E7289",
"D. c #62758C",
"F. c #627689",
"G. c #657B94",
"H. c #6A7E94",
"J. c #677E98",
"K. c #96798C",
"L. c #B26C8E",
"P. c #B871AE",
"I. c #6C839C",
"U. c #728699",
"Y. c #748CA5",
"T. c #7B95AD",
"R. c #7D95B1",
"E. c #7E99B5",
"W. c #BA9C82",
"Q. c #A7828A",
"!. c #ABAA86",
"~. c #819AB5",
"^. c #859EBA",
"/. c #8397B0",
"(. c #87A2BE",
"). c #89A4BF",
"_. c #919598",
"`. c #C59C81",
"'. c #CB9E83",
"]. c #CE9D96",
"[. c #CCA284",
"{. c #CCA589",
"}. c #D1A586",
"|. c #D3A789",
" X c #D5A98A",
".X c #D9AD8C",
"XX c #D4A987",
"oX c #DEB18E",
"OX c #DAAE91",
"+X c #DFB191",
"@X c #D6B39A",
"#X c #CBAD95",
"$X c #E3B593",
"%X c #E6B896",
"&X c #EABA96",
"*X c #E9B998",
"=X c #C38CA1",
"-X c #D4B9A7",
";X c #CFBDB3",
":X c #D7C5B7",
">X c #8BA6C3",
",X c #8DA8C6",
"<X c #8FACCA",
"1X c #90ACCA",
"2X c #8FB0CF",
"3X c #94B1CF",
"4X c #95B4D2",
"5X c #99B6D4",
"6X c #9AB8D6",
"7X c #9ABAD9",
"8X c #97B8D6",
"9X c #95AFD0",
"0X c #D7CBC1",
"qX c #ECEAE6",
/* pixels */
"@ @ 1 @ . @ < < @ < < @ < @ @ @ & @ < @ & 3 @ @ 1 < @ v C 1 @ < + @ # @ @ @ @ @ @ @ < < < @ < < @ @ @ @ o @ @ @ @ @ & @ @ & @ @ ",
"& & @ = H 9 @ @ @ @ & @ @ @ @ & @ @ @ @ @ # @ @ & @ * { ..# * i k r * @ < @ @ @ < @ < @ % o # @ @ @ @ # * * @ + @ @ @ @ @ @ @ @ ",
"@ @ @ 4 l 9 @ @ @ & @ @ @ & < @ @ @ @ @ @ @ @ @ & @ * u e : L /  .^ n 4 @ @ @ @ @ < # o o g V % @ 1 # + R U @ @ 4 @ @ @ @ < @ @ ",
"& @ # @ O @ @ @ @ @ @ @ @ @ @ < @ @ & @ @ & 3 @ & < < @ X 8 2.m.`.N.| a @ @ < < @ O C U - [ $.; @ # 2 1 d p @ @ @ @ @ @ @ @ @ @ ",
"# @ @ @ # @ @ @ < @ @ @ < @ @ @ @ @ & @ @ & @ @ @ @ @ < < 8 v.*X$XoXb.A @ & & < @ O ' [ - 7 j @ o @ & @ o . @ @ & + @ @ @ @ @ @ ",
"@ @ @ < 2 @ @ @ @ @ < @ @ @ @ @ < # @ @ @ @ @ & & @ o @ < ! ;X@X@X:X|.} 0 + & & @ < 7 : @ o + @ @ & & o @ @ & @ @ @ @ @ @ @ @ @ ",
"@ @ @ @ # < 2 @ @ @ @ @ @ < @ @ @ & @ @ @ @ @ @ @ & C a ; _.qX-X0XqX-X5.e + & @ @ < @ + @ & & < @ @ & & < 2 < @ & < @ & 0 * @ @ ",
"@ @ @ @ @ @ 1 @ O * 1 @ @ @ & @ @ @ @ & @ @ @ 3 + = [ V O %.:X#X;X0X@X3.8 @ # @ @ < & & & & & < 3 @ @ @ @ @ < @ & @ @ * 5 @ @ @ ",
"@ @ @ @ & & @ @ 1 H 0 + 9 5 @ @ @ < @ < < @ @ & < # , ; # W {.XX.X$XoX| # @ 1 @ @ @ @ < < @ & 3 2 @ < @ @ @ @ @ @ < @ < @ @ @ < ",
"& @ @ @ @ & O @ < 8 4 @ 9 9 @ @ @ @ @ # < @ & @ @ O @ + # ^ +X{.[..X%Xx.7 + @ @ @ # @ < @ & & @ @ < < < @ < & @ < @ < @ < @ < @ ",
"@ @ @ @ < < @ O @ @ @ @ @ @ @ @ @ @ @ @ & @ 3 @ @ < 1 < # ^ }.v.z.W.+Xp.8 @ @ @ 3 < & & @ < & 7 : @ @ @ & @ @ & @ O @ @ < < < < ",
"@ @ @ @ @ @ ; W x @ @ @ + @ @ @ @ @ @ @ @ < @ @ @ < @ < # E M.B.B.}. XE + @ < @ @ @ @ @ * 2 # ] ..6 @ & & < < @ & & O % @ @ 3 @ ",
"& @ @ @ & + 8 h.W + < @ # @ @ + @ @ @ # & @ @ @ 1 @ @ @ + q N.*X$X&X.XA X + # * = # @ @ & < O E { 6 @ < @ @ @ < o r [ V + @ 1 @ ",
"@ & @ < @ @ @ e 6 @ @ @ @ 3 i 0 # @ o + < @ @ 4 4 @ * * 6 m x..X X.XoX} i e x ^ ..0 + < < @ @ @ # O @ @ @ @ * 3 + d !.A + @ O 3 ",
"& < @ @ @ @ < + @ @ @ @ + 0 8.6.( n s 8 @ X + 1 < 6 P ) 3.v.b.[.}.|.$X Xm.b.'..XW.j @ 3 3 & < @ @ @ @ @ @ @ @ @ & = g > < & < < ",
"@ @ & @ @ @ < # 1 @ @ @ @ q f.g.d.a.q.=.L w 1 # @ 5 9.d.d.p.4.p.'.oX$X&X&X%X*X%X XE o & 3 @ @ @ < @ @ @ @ @ @ @ < # o + < & < < ",
"@ @ @ @ @ @ & @ @ @ @ @ @ 0 e.C.g.a.i.6.L.L.&.k @ 6 9.g.d.a.a.<.f.=X].'.|.oXoX$X%Xr.* @ 1 @ @ @ @ @ @ @ < < @ % < 2 < 2 3 & @ @ ",
"@ @ & @ @ @ @ @ @ < < < @ # ( f.6.;.-.;.i.L.L.I O i e.g.a.6.6.6.q.P.P.s.c.$X$X$X%Xr.$ @ 3 @ @ @ @ @ @ @ < & @ @ < @ & @ 3 @ < @ ",
"@ @ @ @ @ @ @ @ @ & @ @ @ @ ; s s b B ~ ;.:.1.*.s b 4.p.e.~ =.;.1.i.f.0.a.}.Z.oX$Xt.; @ 3 @ @ @ @ 3 @ & @ & & @ 2 & % * & 2 @ @ ",
"@ & @ @ @ < & @ < < * 6 @ @ + + # $ N ;.D B =.,.;.-.x.[.c.3.D B =.=.<.1.,.3.3.Z.&XZ.m @ < 3 @ < & @ @ @ @ @ @ < & & @ o @ < @ o ",
"@ @ & @ @ @ @ @ @ + v ! 1 @ & % o 8 *.,./ 3.x./ B ,.Z.$X*X$Xr.;.-.) r.,.-.:.,.}.%XoX2.# @ 3 @ < @ @ @ @ @ @ @ @ @ @ @ < @ @ @ @ ",
"@ @ @ @ @ & @ @ @ < 9 i 4 @ @ @   b s.~ } x.p.5.M ~ '.%X$X|.6.6.7.r.r.n.4.*.7..X$X$Xr.; + @ < # @ @ @ @ @ & & @ < < @ @ @ @ & @ ",
"@ & @ @ @ @ @ & @ # O o 1 < & & $ I K.L ^ a.>.Z.c./ '.$X$XC.e.f.Z.p.t. X[.3.r.`.|.$Xr.; @ # @ < 3 @ @ & @ < & @ @ @ @ @ 1 # @ @ ",
"@ @ < & @ @ @ @ @ @ @ @ 3 @ o Z k.S P 8 f _ B Z.n.~ '.*X$Xc.y.Q..X}.m. X%X+X X X|.|.| ; j 6 @ @ @ < @ @ @ @ @ @ @ @ @ * 4 @ @ @ ",
"@ @ & @ @ @ @ @ & @ < < & @ o ] V.d X O @ $ N p.Z.4.m. X$XZ.4.x.oX.Xb.Z..X$X$X$X$X$X2.; 9 * @ @ < < @ @ @ & @ @ @ @ @ @ # & @ @ ",
"@ @ @ @ & @ @ @ < @ @ < @ @ @ 0 k 1 @ 1 < @ $ m `.oX XZ.$X+X`.}.oXoXp.>.m..X%X%X$X&X2.O o * & @ < @ & @ @ @ @ < @ @ @ @ @ @ @ @ ",
"@ @ @ @ @ @ & < @ @ @ @ @ < & + X @ < < @ O o # E Z.&X[.[..X.X$XoXoXZ.n. Xb.t.[.$X.XA + @ < @ @ @ & & @ @ < & @ @ @ & @ @ @ @ @ ",
"@ < & @ @ @ @ # @ @ @ @ # @ < @ @ & @ < @ @ @ @ @ k } ^ 2.[.[.|.{.[.oX&XZ.n # x _ E , @ @ @ < @ @ @ @ @ @ @ @ @ @ @ @ @ @ @ @ @ ",
"@ @ @ @ & < @ @ @ @ @ @ @ @ @ @ < & < < < < < 1 @ o O O E |..X}.|. X.X*X2.- > o o o @ @ & @ @ @ @ @ @ @ @ @ @ @ @ @ @ @ @ @ @ < ",
"@ & @ @ @ @ & @ @ @ @ & & @ @ @ @ @ # @ @ < < @ 4 @ @ + E '.|.[. X|. X$X^ Z z.u + @ # @ @ @ @ @ @ @ @ @ @ @ @ @ 3 & @ @ @ @ @ < ",
"@ @ @ @ @ @ @ @ @ @ o @ @ @ @ @ @ @ @ 5 6 @ @ @ @ & < # E .X.X[..X.X.XOXA d ..r @ & @ @ & @ @ @ & @ & @ 4 < @ < @ @ @ @ @ @ < & ",
"@ @ & @ @ & @ @ @ @ & @ @ & @ & & @ < r j o # 3 @ & @ o _ .X X[.+X+X&XXXx o - @ @ @ & @ < @ @ @ @ < 3 < < @ @ & @ @ & @ @ @ @ 3 ",
"% @ @ < @ # @ @ < & @ @ & & @ @ @ & @ * 4 # @ < @ < + # x ) u.v.w.w.n.b.i X + @ @ @ @ @ & @ @ & @ 3 3 < 4 * & @ @ & & @ @ @ @ < ",
"O @ & @ @ + @ @ @ @ @ @ @ @ @ @ @ @ < @ < @ & @ < @ @ # 7 m F.K.E v a x 6 @ * & & @ @ @ @ < @ @ @ O < z S 7 @ & @ @ @ @ @ @ @ < ",
"& 3 @ & & @ @ @ @ @ @ @ @ @ & @ @ @ @ @ @ @ @ @ @ @ @ @ o.Y.^./.J.F.J 8 + @ @ @ @ @ & @ @ & @ < @ o 2 { V.j + & < & @ @ & @ < < ",
"& < o o @ @ @ @ @ @ < @ @ @ @ @ @ @ @ @ @ @ @ @ @ < @ O D.8X4X1X4X4X,XQ o @ @ @ @ @ @ @ @ & @ @ < @ < z Z 6 @ @ @ @ @ @ @ @ < @ ",
"@ 4 z e @ < @ @ & @ @ @ & 1 @ @ & @ @ @ @ @ @ @ @ @ o 5 J.5X1X>X1X3X3Xo.@ @ @ @ @ # & @ @ @ & @ < < & @ + @ & & @ @ @ @ @ @ @ < ",
"+ , h.W # @ < @ < < @ @ + o @ & < & @ @ @ @ @ @ 3 4 @ y R.7X~.@./.5X>XJ o @ & @ @ @ < @ @ & @ < @ @ % < @ @ @ & & & @ @ @ @ @ < ",
"+ & d e @ @ @ @ @ < @ # f Z * @ & @ @ @ @ @ @ @ @ @ + F (.7XY.Q R.6X~.y + 3 @ @ & @ @ @ @ @ @ @ < O @ @ @ @ @ @ @ # @ @ @ @ @ 4 ",
"& @ @ & @ @ @ @ @ 1 @ # $.!.8 + 4 < & @ @ @ @ @ 8 : + K ,X6XJ.o.).6XE.y o < @ & @ @ @ @ & @ @ & @ @ < & @ < < @ @ @ @ @ @ @ @ < ",
"@ < 1 1 @ @ @ @ @ < @ < R W 4 @ @ @ @ @ @ 3 @ # [ ! . K 1X8XS.Y ,X6X/.y o 3 @ @ @ @ @ @ 1 @ @ @ @ < @ < @ @ @ & @ @ @ @ @ & @ 1 ",
"@ & & @ @ @ @ & & @ @ 3     @ < @ @ @ @ & & @ O Z V O Y 1X5X#.Y ,X6XY.r + @ * @ @ & @ @ & @ @ @ & @ @ @ & @ @ @ @ & @ @ @ @ @ < ",
"@ @ @ @ & @ < @ < @ < 3 @ @ @ @ @ @ @ & @ @ @ < * o 2 O.3X8Xo.Y ,X8XU.t @ @ @ @ @ @ @ & @ @ & @ & @ @ & @ @ @ @ @ @ @ @ @ @ # < ",
"@ < @ @ @ @ < < @ @ < & & < @ @ @ 3 3 @ @ @ < @ 2 < 3 @.5X1Xo.J <X7XH.5 + @ & @ @ @ @ @ @ @ @ @ @ & @ @ @ @ @ 3 @ @ & @ @ @ @ < ",
"@ @ & @ @ 1 @ O o o & @ & < < & @ @ < @ @ @ @ # 1 @ * A.5X,XG J <X8XH.*   & @ @ & @ & @ @ @ @ @ @ @ @ @ & @ @ @ & @ @ @ @ @ < # ",
"@ 3 @ @ # @ @ * @ @ @ @ @ & @ @ @ @ # @ @ @ < @ @ @ 4 S.5X).F J 1X5XI.R g @ @ & @ @ @ @ @ @ @ @ @ % & 2 # & @ < @ @ @ & & < < < ",
"@ @ < @ & & & 2 2 @ @ @ @ @ @ @ < @ @ @ @ @ @ @ # + 5 J.6X).h F >X9XU.l.W 1 & & @ & @ @ @ @ @ & @ @ & * 2 3 # & @ @ @ @ @ @ @ < ",
"@ @ @ < @ & 2 ; > & < @ @ @ @ @ < < @ @ @ @ @ @ 2 # 9 J.7X(.F y ^.8XH.Z a 1 < 3 @ @ @ @ & < @ @ @ @ & @ < < < < @ < @ @ @ @ 3 @ ",
"@ @ @ < * 2 # X.k.7 + & & @ @ & @ & @ & @ @ < < 3 + 5 G.8X^.h t /.6XG.1 o & < < @ @ @ @ @ @ @ @ @ # & @ + o @ < @ @ @ @ & @ @ @ ",
"< @ < @ & + O X.l.8 + 1 & @ @ < @ @ @ @ & @ @ @ & @ 4 S.8X).h 9 ~.7XH.5 o & o O & @ @ & @ & @ @ < # < @ d V * @ & @ @ @ & @ @ @ ",
"< @ @ & @ & & 5 8 * & @ < @ @ @ @ @ @ @ @ < < @ < @ 4 A.7X).F 9 R.7XY.9 o 3 @ @ @ < @ @ @ @ @ @ @ @ < # W { # @ 3 @ @ @ @ & & @ ",
"@ @ & @ @ & @ < + o & @ @ & @ @ @ @ @ @ @ @ @ < 3 + # A.8X>Xh 6 Y.7XE.t @ 3 < @ @ < @ @ @ & @ @ < @ < @ 8 8 @ @ < < & @ @ @ @ @ ",
"< @ & @ @ @ & < < < @ @ @ < @ @ @ & @ & & 3 @ @ 3 @ # #.7X>Xh # J.7X^.y + @ 3 @ @ @ @ @ @ @ @ @ @ @ @ < @ + @ & @ < @ @ @ @ & @ ",
"@ & @ @ @ & @ @ & @ @ @ 3 < @ & & @ @ < & % o @ O @ @ #.5X>XF O D.7X>XU + O @ @ @ @ @ & @ @ @ @ < < & @ < & @ @ @ @ @ @ @ @ @ @ ",
"< @ @ @ @ & @ @ & @ & @ @ @ @ & @ < < 3 + @ @ < < @ o @.4X>XF # G.8X<XY o @ < @ @ & @ @ @ & & @ & @ @ @ @ @ & @ @ & & @ @ @ @ & ",
"@ < < @ @ @ @ @ @ @ @ @ @ @ @ @ @ < @ & : : 1 2 3 @ O +.9X>XF # A.8X2XT o @ 3 @ @ < @ @ @ @ < @ @ @ @ & @ @ @ & @ @ @ @ @ @ < @ ",
"@ & @ @ @ @ @ < @ @ @ @ @ @ @ @ @ & @ = $.] # < 3 @ + o.4X,XG   O.<X2X@.& @ + o @ @ @ @ @ + @ @ @ @ @ @ @ @ @ & & @ & @ < @ @ + ",
"@ @ @ @ & @ @ & & @ @ @ & @ @ @ < & + * ! R O @ @ @ o o.4X>XF o T 4X4XS.# + > : @ < @ < @ l a @ @ & @ @ & & @ & @ @ @ @ @ @ r R ",
"# < & @ @ @ @ @ @ @ @ @ @ @ & < @ & @ @ @ @ @ @ < < o h @.+.r X Y <X7XS.# ; { { ; < @ @ # R C @ < < @ @ @ @ @ o @ < < & @ + v z.",
"@ & @ @ @ @ @ @ @ @ @ & & @ @ @ @ @ @ & + @ @ @ @ @ ; a x g ; X t S.J.U + 4 R R # @ % @ O = * < < @ @ @ @ @ & @ & < @ & @ 1 6 i ",
"@ @ @ & @ @ @ @ & @ @ < @ @ @ @ @ @ @ @ & & @ @ @ @ i x f a = + 8 v x 8 < 2 O O @ @ & & @ o @ < @ @ @ @ @ @ @ @ @ @ @ & @ 3 @ o ",
"@ @ @ @ @ @ & @ @ @ @ & @ @ @ & < < @ @ @ @ @ @ @ # ; ; * * o 8 z v f 0 < < # o @ & @ @ @ < 2 < O < @ @ @ @ @ @ < & o @ @ @ % @ ",
"@ @ @ @ & @ @ < # @ @ @ @ & @ @ @ @ @ @ @ @ < @ @ @ @ @ + @ @ : 8 > : O @ o < < @ @ @ < & o < < @ @ @ @ @ < @ 3 @ @ d u @ < & @ ",
"@ 3 @ @ @ @ @ & @ @ @ @ @ @ @ @ < @ & & @ 3 < @ @ < < @ @ < & + o o + @ % & 3 2 @ & < < 3 % & @ @ @ @ @ 3 < @ 3 o 6 h.] @ < @ @ "
};
