/* XPM */
static char *_28b8e4973ec4ef4c5fc26b1603a69648rZMLCQPyZeoTwOp[] = {
/* columns rows colors chars-per-pixel */
"64 64 221 2 ",
"   c #000006",
".  c #01010B",
"X  c #0B070F",
"o  c #020413",
"O  c #0D0611",
"+  c #040B15",
"@  c #0B0C16",
"#  c #02051C",
"$  c #050B1B",
"%  c #0E0F1D",
"&  c #081018",
"*  c #0E111E",
"=  c #11121E",
"-  c #151A1E",
";  c #201113",
":  c #100D21",
">  c #0E1326",
",  c #121423",
"<  c #1D1627",
"1  c #171C23",
"2  c #1A1C24",
"3  c #161C2A",
"4  c #1C1C2B",
"5  c #151C33",
"6  c #201F21",
"7  c #1B2127",
"8  c #1D242C",
"9  c #1C2332",
"0  c #19243B",
"q  c #272629",
"w  c #21272F",
"e  c #322827",
"r  c #3A352B",
"t  c #242C34",
"y  c #2A2A35",
"u  c #232D3A",
"i  c #302932",
"p  c #283136",
"a  c #2B343B",
"s  c #2D383C",
"d  c #393938",
"f  c #47271D",
"g  c #51301A",
"h  c #4F3E36",
"j  c #413739",
"k  c #673E2F",
"l  c #3F443D",
"z  c #584328",
"x  c #46453A",
"c  c #524236",
"v  c #644B2A",
"b  c #6B522F",
"n  c #72562D",
"m  c #654833",
"M  c #6E5634",
"N  c #785A37",
"B  c #79603B",
"V  c #162747",
"C  c #242B48",
"Z  c #2A3543",
"A  c #2C354B",
"S  c #3D3742",
"D  c #313D46",
"F  c #323E4A",
"G  c #2F3856",
"H  c #323B58",
"J  c #212D62",
"K  c #2B3769",
"L  c #353E65",
"P  c #463B47",
"I  c #35414D",
"U  c #394349",
"Y  c #3A444E",
"T  c #3D4B54",
"R  c #394A58",
"E  c #3C525C",
"W  c #36436C",
"Q  c #484846",
"!  c #43444B",
"~  c #574F45",
"^  c #4E5349",
"/  c #54544B",
"(  c #5B544D",
")  c #414F5A",
"_  c #44525D",
"`  c #48565F",
"'  c #585656",
"]  c #6C5C4C",
"[  c #7C5F4C",
"{  c #644F53",
"}  c #685A57",
"|  c #735E56",
" . c #66625E",
".. c #796459",
"X. c #465362",
"o. c #465767",
"O. c #485762",
"+. c #4B5A64",
"@. c #4D5C6A",
"#. c #535964",
"$. c #495671",
"%. c #515A7B",
"&. c #4F606C",
"*. c #5E6368",
"=. c #556377",
"-. c #696865",
";. c #79766C",
":. c #746B74",
">. c #797876",
",. c #81593D",
"<. c #826539",
"1. c #8B5946",
"2. c #945F48",
"3. c #855D50",
"4. c #93654C",
"5. c #8F7146",
"6. c #97794A",
"7. c #946855",
"8. c #967457",
"9. c #A96951",
"0. c #B27A5F",
"q. c #90766E",
"w. c #837A74",
"e. c #A77966",
"r. c #B87D63",
"t. c #A77E73",
"y. c #9F8153",
"u. c #A8875B",
"i. c #BA865F",
"p. c #848278",
"a. c #9B8471",
"s. c #A3856C",
"d. c #B9866A",
"f. c #B7906C",
"g. c #AB8778",
"h. c #AF967B",
"j. c #B59379",
"k. c #C48F72",
"l. c #C79977",
"z. c #CA9B7C",
"x. c #D09974",
"c. c #394A89",
"v. c #4E5D8F",
"b. c #596789",
"n. c #506593",
"m. c #6E7283",
"M. c #777984",
"N. c #606F9F",
"B. c #6A7699",
"V. c #5B6DA5",
"C. c #5E72A5",
"Z. c #5C6EB0",
"A. c #6777A8",
"S. c #6479B1",
"D. c #847885",
"F. c #7E8684",
"G. c #7D84A4",
"H. c #6D82BC",
"J. c #7785BD",
"K. c #7184C7",
"L. c #8A8C83",
"P. c #938487",
"I. c #95948C",
"U. c #81849B",
"Y. c #9E8D99",
"T. c #A89487",
"R. c #B49787",
"E. c #9EA29E",
"W. c #BAA596",
"Q. c #8D90A3",
"!. c #B09FB7",
"~. c #9CA2B4",
"^. c #A6A9A4",
"/. c #AFAFA9",
"(. c #AEB1AB",
"). c #B2B3AD",
"_. c #B5B8AE",
"`. c #A5ABB2",
"'. c #B7B9B5",
"]. c #B6B8B6",
"[. c #BBBDBA",
"{. c #C19A8C",
"}. c #CDA88F",
"|. c #D7A988",
" X c #C4A99A",
".X c #D5AD92",
"XX c #DBB69B",
"oX c #E1B18F",
"OX c #E3BB9D",
"+X c #C9A9AD",
"@X c #CAB6A7",
"#X c #D2B6A0",
"$X c #BFC1BA",
"%X c #C2C4BE",
"&X c #CAC6BE",
"*X c #DCC6B0",
"=X c #E7C5AA",
"-X c #BABDC7",
";X c #BFC4CF",
":X c #C4C5C4",
">X c #C9CAC4",
",X c #C9CAC7",
"<X c #CDD1C9",
"1X c #D3D3CD",
"2X c #D9D3CE",
"3X c #C7CAD4",
"4X c #D9DAD4",
"5X c #D3D6DC",
"6X c #D6DAD8",
"7X c #DDDED9",
"8X c #D9E1DC",
"9X c #E2E1DC",
"0X c #DADDE3",
"qX c #D5D9EA",
"wX c #D4D9EB",
"eX c #DEE3E7",
"rX c #DCE4F5",
"tX c #E9EAE7",
"yX c #E3E9F8",
"uX c #F7F9F9",
"iX c #FFFEFB",
/* pixels */
"% % % % % % % * % % = % % % % % % % % % % % % % % * % % % % % % % % % % % % % % % % % * % % = % % % % % % % % = % % % % % % % % ",
"% % % % * : % % % % % % % % % % % % % % = % % % % : % % % % % % % % $ % % % % % % % % % % % % % % % % % % % % % % % % % % % : % ",
"% % % * % % % % % % % % % % % % % % % % % % % % % % % o o @ o o o w S 4 # % % % % % * : % % % % % % % % % % % % % % % % % % * * ",
"% % % % % % % % % % % % % % % % % * % % % % % % % % + P D.P.;.d C D.q.u.] : % % % % * % % % % % % % % % % % % * % % % % % % % % ",
"% % % % % % % % % % % % % % % % % % % % % % % % % o y Y.t.a.j.j.h.B g N u.c # * % % % % % % % % % % % % % % % % % % % = % % % % ",
"% % % % % % % % % % % % % % % % % % % % % % % % % o m.P.] N <.8.y.f.5.z n M # * % % % % % = % % % % % % % % % % % % % % % % % * ",
"% % * % % = % % % % : * % % = % % % % % % % % % @ 3 !.j.[ b n N 6.y.u.B n <.e % % % % % % % % % % % = % : % % % % % % % % % % % ",
"% % % % % % % % % % % % % % % % * % % % % % % % # y ..8.j.8.,.N B <.y.N M <.q % % % % % % % % % % % % % * % % % % % % % % % % % ",
"% * % % % % % % * % % * % % % % % % % % % : % % @ 3.+Xt.e.u.9.1.z <.6.v v b % % * % % % % % % % % % % % % % % % % % % = % % % % ",
"% : % % % % % % % % % % % % % % % % % % % * % % # P T.3.4.4.1.4.b B z c n e $ * % % % % * % % % % % % % % % % % % % % % % % % % ",
"% % % % % % % % % % % % = % % % % * % % % % % % : < 7.m g g 1.r.d.r o q h o % % % % % % % % % % % % % % % % % % % % % % % % % % ",
"% % % % = % % % % % % % % % % % % % % % * % % % : : q ; f k 7.d.OX .  o = % % % % * % % % % % % % % % % % = % * % % % % % % * : ",
"% % % % % % % % % % * % % % % % % % % % % % % % : % % $ q 1.2.d.XX*X;.w . % % % % % % % % % % % % % % % % % % * % % = % % % % % ",
"% % * % % % % % % % % % % % % % % * % % % % % % % % % % . w.@X5XeXtXiXuX` . % % % % % % % % % % % % = % % % % : % % % % % % * % ",
"% % % % % % % % % % % % : % % % % % % % % % % % % % %   m.rXrXrXeX8XtXiX7X: % % % % % * % % % % % % % % % % % % % % % % % % % % ",
"% % % % = % % % % % % % * % % % % % % % % % % % % % . M.uXyXwX5X6X7X7XtXiXP o % % % % % % % % * % % % % % % % % % % % % % % % % ",
"% % % % % % % % % % % % % % % % % % % % % % % % %   m.uXyXwX3X:X<X1X4X9XiX' . % : % % % % % % % % % % % % % % % % % % % % % % = ",
"% % % % % % % % % % % % % % % % % % * % % % % % o 4 yXyX;XE.].;X>X1X4X7XuXM.. % * % % % % % % % % % % % % % % % % % % % % % % % ",
"% % % % % % % % % % % % % % % % % % : % % % % % . m.yX,X/.I.F.].>X2X4X9XuX[.o % % % % % % = % % % % : * % % % % : % % % % % % % ",
"% = % % * * : % % % % % = % % % % % * % % % % % . ~.0X].^.E.L.(.:X>X<X1X9XtX4 % % % % % % % % % % % % % % % % % * * % % % % % % ",
"% % % % % % % % % = % % % % % % % % % % % % % %   Q.6X].(.^.E.(./.W. X#XXX@X3 @ % % % % % % % % * % % * % % = % % % % % % % % % ",
"% % % % % % % % % % % % % % % % % % % % % % % %   G.0X]._.$X$X$XW.9.i.l.|.g.o @ % % % * % % % % % % % % % % % % % % % % % % % % ",
"= % % % * % % % % % % % % : % % % % % % % % % %   U.eX$X'.$X%X%X:X7.0.}.=XR.o % % % % % % % % % % % % % % % % % % % % % % % % % ",
"% % % % % % % % % % % % * * % % % % % % % % % % . Q.0X$X'.'.$X&X<XW.k..XXXXX1 % % % % % % % = % % % % % % % % % * : % % = % % % ",
"% % % % % % % % % % % % % % % % % % % % % % % % . ~.qX:X:X$X$X&X<X:Xk.|.XXOXy $ % % % % : * % % % % = % % % % % % % % % % % % % ",
"% % % % % % % = % % % % % % % % % % % % % % % % . -XqX,X2X<X<X1X8X Xk.{..XXX2 % % % % % % % % % % % % % % % % % % % % % % % % * ",
"% % % % % % % % % % % % % % % % % % % % % % % @ % wX3X-X$X,X2X7XtX{.d.z.|.j.o % % % % % % % % % % % % % % % % % % * % % % % % % ",
"% % % % % % % % % % % % % = % % % % % % % % % o F yX;X(.E./.&X<X8XW.r.l.oX| o % % % % % * % % % % % % % % % % % % % % % % % % % ",
"% % : % * % % * % : % % % % % % * % % = % % % . #.uXqX0X9X9X9X9XtX@Xd.z..Xi # % % % = % % % % % % % : * % % = % : % % % % % % = ",
"% % % % % % % % % * % % % % % % % % % % % % % % : ~.`.^.^.)._._.`.T.k.z.j.o % % % % % % % % % % % % % % % % % % * % % % % % % % ",
"% % % % % % % % % % % % % % % % % % % % % % % % # Z.A.@.O._ _ ) R } k.oX{ o % % % % % % % * % % * % % % % % % % % * % % % % % % ",
"% = % % % % % % % * % % * % % % % % % % % % % % 4 K.b.+._ _ _ _ X.q.d.|.i # % % % % % % % % % % % % % % % % % % % % % % % % % % ",
"% % % * % % * % % % % % % % * : % % % % % % = : @ V.A.@.O.` ) E Y.}.k.x.P o % % % * % % % % % % % % % % % % % % % % % % % % % % ",
"% % % % % % % % % % % = % % * % : % % % % % @ @ . N.A.&.O.+.o.:.R.d.k.|...o @ % % % % % % % % % % % % % % % % % % % % % % % = % ",
"% % % % % % % % % % % % % % % % % % % % % % % = < H.b.@.@.&.-.e.t.e.r.x.[ o % % % % % % % % % % * : % % % % % % % % % * % % % % ",
"% % % % % % % * % % % % % % % % = % % % % % % O G H.=.+.@.&.` *.e.7.7.1.j # % % % % % % % % % = % % % % % % % = % % : * % % % % ",
"% % = % % % % : % % % % % % % % % % % % % % % . W A.=.@.@.@.E } 8.3.h , $ % % % : % * % % % % % % % % % % * % % % % % % % % % % ",
"% % % % % % % % % % % % % % % % % % % % % % % o n.b.@.o.@.@.T ] ( D , % % % % % % % % % % % % % % * % % % % % % % % % % % % % % ",
"% % % % % % % % = % % % % % % % % % % % % % % @ V.b.o.X.O.O.T Y F s 4 % % % % % % % = % % % % % % % % % % % % % % % % % % % % % ",
"% % % % % % % % % % % % % % % % % % % % % % % 4 S.%.X.) O.` T Y S p , % % % % % % % % % % % % % % % % % % % % % % % = % % % % % ",
"% % % % % % % % % % % % % % % % % % % % % % @ C H.E E _ O._ T Y D w = % % % % % % % % % % % % % % % % % % % % % % % % % % % % % ",
"% % * * % % % % % % % * % % = % % % % % % % O H C.W o.E R Y U I s t = % % % % % % % % % % = % % % = % % % % % % : % % % % % % % ",
"% % % : % % % % % % % % % % % % % % = % % % O L n.E E I I s p 6 q a 3 % % % % % % * % % % % % % % % % % % % % % * % % % % % * % ",
"% % % % % % = % = : % % % % % % % % % % % % O L V.R s u s s s t w t t % % % % % % % % % % % % % % % % % % % % % % % * % % % % % ",
"% % % = % % % % % % % % % % % % % % % % % % % V I 3 7 u I I I t 7 w s 1 @ * % % % % % % % % % % % % % % % % % % % % % % % % % % ",
"% % % % % % % % % % % % = % % % % % % % % % = , u u l Z I I I u 7 w p 8 % * % % % % % % % % % % % % % % % % % = % % % % % % = % ",
"% % % % % % % % % % % % % % : % % % % % % % @ = 5 R I I I I s s - - - q * % % % % : * * % % % % % % % : % % % * % % % % % % % % ",
"% % % % % % % % % % % % % % % % % % % % % % % @ > K Z Z l I I I w = - 7 % % % % % % % % % % % * % % % * % % % * : % % % % % % % ",
"% % % : % % % % % % % % % : % % % % % % % % % % % C A Z A I I I t - 2 8 % % % % % % % % * * % % * % % % % % % % % % % % * % % % ",
"% % * % % % % % @ % % % % @ % % % % % % % % % % % : 8 0 Z I Z u t - - 8 = % % % % % * % % : % % % % % % % % % % % * % % % % % % ",
"@ % % @ @ @ @ @ @ @ @ @ % @ @ @ % % % % % % % % * % 5 V 8 8 t 8 w + & 8 , % % % % % % % % % % % % % % % % % % % % % % % % % % % ",
"@ @ @ @ @ @ @ @ @ @ @ @ @ @ @ @ @ % % : % % % % % X : 9 3 9 t t d c [ | o % % % % % % % % % % % = % % % * : % % % % % % = % % % ",
"% @ @ % @ @ @ @ @ @ @ @ @ @ @ @ @ @ @ @ @ % @ % + A W C u u Z a } s.j.T.p % % % % % % % % % % % % % % % % % % % % % % % % % % % ",
"% % % % @ @ @ @ % @ @ @ @ @ @ @ @ @ @ @ @ @ @ @ t G.B.K 7 2 8 8 p l Q ~ P $ % % % % % = % % % % % % % % % % % % % * % % % % % % ",
"% % % % % @ @ @ @ @ @ @ @ % @ @ @ @ @ @ @ % @ @ % P ;.A 9 0 p t e l d / p.4 % % % % % % % % % % % % % % % % % % % % % % % % % % ",
"% % % % % @ % % @ @ @ @ @ @ @ @ @ @ @ % % % % % % o . V V 0 0 3 U  .;.p.-.@ @ % % % % % % % % % % % % % % % = % % % * : % % % % ",
"% % % % % % % % % % @ @ @ @ @ @ @ @ @ @ % % % % % X 5 $.' m ..... . . . . @ @ @ % % % % % % % % = % % % % % % % % % % % % % % % ",
"% % % * % % % % % % % % % @ @ @ @ @ @ @ @ @ @ + @ V c.%.a.z.|.W.p * % @ % @ @ @ @ @ @ % % % % % % % % % % % % % % % % % % % % % ",
"% % % % % % % % % % % % % % @ % @ @ @ @ .   O 5 J K C r Q ^ / ( l # % % % @ @ @ @ @ @ @ % % : % % % % % % % % % % = % % % % % % ",
"% % % % % % % % % % % % % % % % % @ : % G v.A.c.K G U x l l r d ^ 3 % % % % % @ @ @ @ @ @ @ % % % % % % % % % % % % % % % % % % ",
"% = % % % % % % % % % % % % % % % % O L K.J.J.n.H ! Q r r x ( p.I.< @ % % % @ @ @ @ @ @ @ @ @ % % % % % % % % % % % % % = % % % ",
"% % % % % % % % % % % % % % % % % @ o m.M.#.' / c ^ } w.P.L.;.Q - # @ % % % % % @ @ @ @ @ @ @ @ @ @ @ @ @ % % % % % % % % % % % ",
"% % % % % % % % % % % % % * % % = = = - { ;.;.w.p.>.-.d - o . . @ @ @ @ @ @ @ % % % @ @ @ @ @ @ @ @ @ % @ % % % % % % % % % % % ",
"= , = , , = = = = , = , = = * : % = = = + + @ % % o o $ % = = = = = = % = = = % = = = = = = = % = = = % = = % = = % , = = = , , "
};
