/* XPM */
static char *_56f123c19194bd0a0f64c9a686a541eg84HnqwHNx1Z3M7g[] = {
/* columns rows colors chars-per-pixel */
"64 64 221 2 ",
"   c #000006",
".  c #00000C",
"X  c #0C0D0F",
"o  c #030413",
"O  c #0C0713",
"+  c #050815",
"@  c #0B0C16",
"#  c #02051C",
"$  c #040C1C",
"%  c #0E0F1D",
"&  c #110D1A",
"*  c #0F101C",
"=  c #11121E",
"-  c #14181A",
";  c #281514",
":  c #0C0E22",
">  c #0D1226",
",  c #131521",
"<  c #131924",
"1  c #171927",
"2  c #1A1D2A",
"3  c #141B33",
"4  c #141A34",
"5  c #1C232D",
"6  c #1D2432",
"7  c #162338",
"8  c #252327",
"9  c #2C2925",
"0  c #242B2C",
"q  c #3B2D2F",
"w  c #33322E",
"e  c #242B35",
"r  c #272A37",
"t  c #252D3C",
"y  c #2C2D3A",
"u  c #2C363B",
"i  c #2A323C",
"p  c #3A3A34",
"a  c #343538",
"s  c #461F15",
"d  c #51291B",
"f  c #45372B",
"g  c #413F36",
"h  c #423E3B",
"j  c #62392E",
"k  c #3D423C",
"l  c #47423A",
"z  c #5B443B",
"x  c #61462E",
"c  c #624B2A",
"v  c #7B4E39",
"b  c #6B5332",
"n  c #6A553B",
"m  c #735935",
"M  c #7B5D3C",
"N  c #7C613B",
"B  c #131D45",
"V  c #1C2444",
"C  c #18254B",
"Z  c #1C2854",
"A  c #232D44",
"S  c #232C4B",
"D  c #2B3644",
"F  c #2A3647",
"G  c #2D3946",
"H  c #2A364A",
"J  c #353542",
"K  c #3B3C45",
"L  c #333D4C",
"P  c #222F57",
"I  c #2C3955",
"U  c #273765",
"Y  c #26377A",
"T  c #394347",
"R  c #3B454C",
"E  c #354252",
"W  c #3B4555",
"Q  c #394956",
"!  c #35445B",
"~  c #3C495B",
"^  c #39456A",
"/  c #3A4576",
"(  c #474848",
")  c #514B46",
"_  c #574946",
"`  c #55544D",
"'  c #58564B",
"]  c #434652",
"[  c #4A4B52",
"{  c #424D5C",
"}  c #554A52",
"|  c #47545C",
" . c #575454",
".. c #5D5D5C",
"X. c #735C51",
"o. c #676255",
"O. c #66645C",
"+. c #4C4D6E",
"@. c #455264",
"#. c #4A5663",
"$. c #4D5B6B",
"%. c #5B5C64",
"&. c #505D6D",
"*. c #575F72",
"=. c #53616E",
"-. c #536372",
";. c #576477",
":. c #596B79",
">. c #696667",
",. c #6B6963",
"<. c #736A65",
"1. c #75746E",
"2. c #7A786F",
"3. c #6A6B77",
"4. c #636C7B",
"5. c #756F78",
"6. c #63707F",
"7. c #797676",
"8. c #866A3E",
"9. c #8F723F",
"0. c #875B45",
"q. c #915541",
"w. c #856A45",
"e. c #896D45",
"r. c #99694D",
"t. c #8E7148",
"y. c #927349",
"u. c #896958",
"i. c #89715A",
"p. c #917654",
"a. c #9B7959",
"s. c #A46C56",
"d. c #A8765A",
"f. c #8F726B",
"g. c #987867",
"h. c #A77866",
"j. c #B57B62",
"k. c #A77B72",
"l. c #9F8457",
"z. c #A78658",
"x. c #82817D",
"c. c #9B8576",
"v. c #B68269",
"b. c #BA886B",
"n. c #B39567",
"m. c #AC8876",
"M. c #B98A73",
"N. c #C08F71",
"B. c #C39476",
"V. c #C6987A",
"C. c #233682",
"Z. c #354D88",
"A. c #385387",
"S. c #2C4A95",
"D. c #385396",
"F. c #4B5C8B",
"G. c #576394",
"H. c #627283",
"J. c #6D7787",
"K. c #767980",
"L. c #6C7699",
"P. c #566AAD",
"I. c #857E8C",
"U. c #738392",
"Y. c #748691",
"T. c #748A96",
"R. c #988687",
"E. c #858B98",
"W. c #999995",
"Q. c #A5988C",
"!. c #A9999C",
"~. c #BA9894",
"^. c #8795A7",
"/. c #9394A5",
"(. c #A891AA",
"). c #B7B3BA",
"_. c #C89A84",
"`. c #CA9991",
"'. c #CCA484",
"]. c #C6A68E",
"[. c #CBA58A",
"{. c #D1A78B",
"}. c #D7A98A",
"|. c #C9AA92",
" X c #D2B297",
".X c #D6B395",
"XX c #D9B59B",
"oX c #E2B692",
"OX c #C9B8A9",
"+X c #DCBAA3",
"@X c #BDC0BB",
"#X c #C7C4BD",
"$X c #D6C4B4",
"%X c #E7CAB6",
"&X c #B7BBC6",
"*X c #CEBDCB",
"=X c #B9C3D6",
"-X c #CACCC4",
";X c #CCCFCD",
":X c #D5CCC2",
">X c #D2D2CC",
",X c #DDD4CA",
"<X c #CCCFD3",
"1X c #D4D5D2",
"2X c #D5D8D6",
"3X c #DADAD5",
"4X c #DDDED9",
"5X c #E2DED5",
"6X c #DEE0DE",
"7X c #E2E2DD",
"8X c #D3DBEA",
"9X c #D6DAE9",
"0X c #DFE0E7",
"qX c #E5E6E1",
"wX c #E9E9E6",
"eX c #E9EAEB",
"rX c #E3E6F2",
"tX c #ECF2FF",
"yX c #FAFAF4",
"uX c #F6FCFD",
"iX c #F9FAFA",
/* pixels */
"% % % % = % % % % % % % % % % % % : % % % % % % % % % % * * % % % % % % % % % % % % % % % % % % % % % % % = % % % % : % % % % % ",
"% % % % : % % % % % % % % % % % % % % % % % % % % % # o o * % % % % % % % % % % % % % % % % % % % = % % % % % % % % = % % % % % ",
"% % * % % % % % % % % % % % % % % % % % % % % % % * h  ._ - . o # = # # % % % % % % % % % % % % % % % % % % % % = % % % % % % % ",
"% % % % % % % * = % % % % * % % % % % % % % % % % O.m.n.n.a.y #.I.c.i.w # % % % % % % % % % = % % % : = % % = % % % % % % % % % ",
"% * % % % % % % % % % % % % % * % % % % % % % $ f u.w.t.t.p.R.c.c.z.z.l.* % % % % % % % % % % % % % % % % % % % % % % = % % % % ",
"% % % % % % % % * % % % % % = : % % % % % % % # g 8.b 8.y.p.p.m e.e.9.n.K o % % % % % % % = % % % % % % % % % % % % % % % % % % ",
"% = % % % * % % % % * % % % % % % % % % % % % : u.e.m 8.y.w.w.e.c 8.t..XR.o % % % % : = % % % % % % % % % % % % % % % % % % % % ",
"% : % % % % % % % % % % % % % % % % % % % % % % n M N M t.w.M M w.c [.[.g.% % % % % % % % % % % % % % % % % % % % = % % % % % % ",
"% * % % % % * * % % % % % % % % % * % : = % % $ q c b f 8.8.v X.j.s.M.].%X_ # % % % % % % % % = % % % % % % % % % % % % % % % % ",
"% * : * * % % : % % * % % % % * % % % % % % % % * f b : x c b j j q.d.M.].8 + % % % % % % % % % % % = % % % % % % % % % % % % % ",
"* % % % % % % * % * * % * % % : % % * % % % % % $ 9 f # O z 0.0.v s d r.g.o % % % % % % % % % % % % % % % % % % % : % % % % % % ",
"% % % % % % % % * : % % % % * * % % % % % % % % % = = . % (.B.h.r.q.; ; 9 $ % % % % % * % % % % % % % % % % % % % = % % % % % % ",
"% % % * % % % % % % % % % % % % % % % % % % % % % % . 2 I.*X[.V.M.d.: $ % % % % % % % % % % % % % % % % % % % % % % % % % % % % ",
"% % % % * % % % % * % % % % * % % % % % % % % % % . J tXiXrXqX5X%X)   * % * % % % % % % % % % % = % % % : % % % % % = % % % % % ",
"* * % % % % : * % % % % * : % % % % % % * : % % % . &XuXrXeXwXwXuX6Xi . % % % % % % % % % % % % % % % % % % % % % % % % % % % % ",
"% : % % % * * % % % % * * % % % % % % % % = % % . ] uXrX0X6XqXwXwXyXwXK . % % % % % % % % % % % % % % = % % % = % % % % = % % % ",
"% * % % % % % % % % % % % % % % % % % % % % % % . J.iX9X2X3X4X7XwXwXyXeXJ . % % % % % % % % % % % % % % % % : % % % % % % % % % ",
"% % % % % % % % % % % % % = % % : % % % % % % % . 4.9X<X;X1X3X4X7XqXqXyX).. % % % % % % % % % % % : % % % % % % % % = % % % % % ",
"% % % % % % % % = % % % % % % = % % % % % % % = o y <X8X1X1X4X7X7X3X;X7XyXu o % % % = % % : % % % % % % % % % % % % % % % % % % ",
"% % % * % % % % % % % % % % % % % % % % % % % % % + &XrX1X1X3X4X7X>X#X4XyX%.. % % % % % % = % % % % % % % % = % % % % % % % % % ",
"% % % % % % % % % % % % : % % % % % % % % % % % % . E.2X#X#X:X>X3X;X-X7XyX[ . % % % % % % % % % % % % % % % % % % % : % % % = % ",
"% % % % % % % % % % % % % % % % % % % = % % % % % o { !.v.V.'.{. X-X1X7XyXK o % % % % % % % % % % % % % % % % % % % % % % % % % ",
"= % % % % % % % % % % % % % % % % : % % % % % % % o y !.s.b.'.{.{.>X3X7XyX] o % % % % % % = % % % % % % % % % = % % % % % = % % ",
"% % % % % % % % % % % % % % = % % % % % % = % % % $ q ).~.V.{.+XOX>X3X7XyX[ . % % % % = % % % % % % % = % % % % % % % % % % % % ",
"% % % = % % % = % % % % % % % % % % % % % % % = % % & !.~.B.{.+X$X1X5X7XyX%.. * % % % = % % % % % % % = % % % % = % % % % % % % ",
"% % % % % % % % % % = % % = % % % % % % % % % % % % . 5._.M._.XX$X3X7X7XyX7.. * % % % % % % % % % % % % % % % % % % % % % % = % ",
"= % % % = % % % % % % % % % % % % % % % % : % % % % O =X!.j.B.{.XX,X7X7XyXW.. * % % % % % % % % % % = % % % % % % % % % % % % % ",
": % % % % % % % % % % % % % % = % = % % % % % % % o K uX*Xs.b.V..X,X7XwXyX1X+ * % = : % % % % % % % : % % % % % % % % % % % % % ",
"% % % % % % % % : % % % % % % % % % % % % % = % % o ] 8X8Xm.h.B.|.:X4X7XwX1X, % % % % % % % % % % % % % = % % % % % % % % % % % ",
"% % % % % % % % % % % % % % % % % % % % = % % % % % > P.L.f.s.M.{.OX@X-X;XK.. % % % % % % % % % % % % % % % % % % % % % % % : % ",
"% % % % % % % % % % % % % % % % % % % % % % % % % % 3 D.U E i.M.}.Q.:.T.Y.&.o % % % % % % % % % % = % % % % % % % % = % % % = % ",
"% % % % % % % % % % % % % % % % % % % % % % % % % O S A.E ! >.v.V.~.:.J.^.H.o % % = % % % % % % % % % % % % % % % % % % % % % % ",
"% % : * % % * : % * % % * * % % * % % % * % % % * @ V A.! L ! k.V.+XE.U.^.J.@ * % % % % % % % % % % % % * % % % % * % % % % % % ",
"% * * % % % * * % % % % % : * % % % % % % % % % * * 1 / ! ~ *.k.N.oX+X/.:.:.t @ % % % % % % % % % % % % * : % % % % * : * % % % ",
"% * % % * % % % : * % % % % % % % % * * % % % % * % & Z.^ ~ $.k.B.V.oX|.T | L o % % % % % % % % % * % % % % % * % % % % % % % % ",
"% % % % % % % % % * % % * % % % % % : % % % * % % % O Y ^ ~ -.k.b.N.V.M.( | @.X % % % % % % % % * : % % % % % % % % % * % % % * ",
"% % % % % * % % % % % % % % % % % * % : * : * % % % @ U ^ R ;.f.r.r.g.m.E Q =.X % % % % : % % % % % % % % * % % % * % % % * : * ",
"% % * % % % % % * % % % % % % * % % % * % % % % % % X Z Z.R @.-.3.<.5.g.Q R =.@ % % % % * * % % % % % % * : % % * : % * % % % % ",
"% * % % % % * * % % % % % % % % % % % % % % % * * * X P D.E @.$.&.-.H.H.Q R :.5 % % % % % % % % % % * % % % * % % % % % % % % % ",
"* * : % % % * : % % % * * % % % % % % * % % % % % * X P D.! @.$.&.-.:.U.u T | 5 % % % % * % % % % % % % % % % % % % % % % % * % ",
"% % % : * % % % % % % * % % % % % % * % % % * % % % X U D.I ~ $.&.-.H.L.8 u #.2 % % % % % % % * % % * * % * % % % % : * % % * % ",
"% % % % * % * % % % % % % % % % % % * : % % % % % % % 7 I G E { $.&.:.U.0 - u * % % % % % % % % * % % : % % % % % % * % % % % % ",
"% % * % % % % % * % % % % % * % * % % % % * % % % % % @ V t D G @.-.:.6.u e < % % % % % * * % % % % % * % % % % * % % % % * % % ",
"% % % % % % % % % % % % % % : = % % % % % % % % % % % < S.H t e D #.H.-.u t % @ % * % % : % % % % % % % % % % * % % % % % % % % ",
"% % % % * % % % % % % % % % % % % % * % % % * % $ * X C D.L u e - 6 ~ ~ u 6 % % % % * : * % * % % % * % % % % % * % % % % % : = ",
"% % % % % % % % = : % % % % % % % = : % : * % % * * @ Y U E E G u e u u 6 * % % % % % % % % % % % % % % % % % % % % % % % % % % ",
"% % % % % % % % % % % % * % % % % % % % % * % % * @ Z S.H H E ~ ^ T 5 5 5 % % % % % % % % % % % % % : * % % % % % % % % % % % % ",
"% % % % % % % % * % % % % % % % % % % % % % % % * @ Y U I H G E Q u - 6 , % % % * % % % * % % % % * % * = : * % % % * % % % % % ",
"% % % % % % % % % % : % % % % % % % % % % % % % @ 4 C.U I L D D Q 6 5 A , % % % % % % % % % % % % % % * % % % % % % % % % * % % ",
"% % % % % % % % % % % % % % % % % : % % % % % % % B V A H H t 6 - - 5 e % % % % % % % % % % % % % % % % * % % % % * % % % % % % ",
"% % % % % % @ @ + @ @ @ @ @ @ @ % @ % % % % % % % 4 7 - % 5 L V . + > A > * & % % % % % % % % % * * % % % % : * % * * % % * % % ",
"@ @ @ @ + @ @ @ @ @ @ O @ @ % @ @ @ @ % % % % % % 4 C A t t t t X.z u.7. .4 : + . o % % % % % % * : % % % * * % % : % * * * : % ",
"% @ @ @ @ @ @ @ @ @ @ @ @ + @ @ % @ @ @ @ @ @ @ @ 4 7 2 5 D A +.R.i.f.o.' ` W ^ F.+.t : % % % % % % % * : * % % % % % % % % % % ",
"% % % @ @ @ @ @ @ % @ @ @ % @ @ + @ @ @ @ @ @ @ + C V 6 6 6 t P p k p p l ) ` ..5.W.5.o % % % % % % % % % * % % % % % % % % % % ",
"% % % @ @ + % @ @ @ @ + @ @ @ @ @ @ @ @ % @ @ % % B 7 A H D D K.' ' ` O.,.,.<.2.2.' 1 @ % % % % % % % % % % * % % % % % % % * % ",
"% % % O % O @ @ @ @ @ % @ @ @ @ @ @ @ @ @ % % % + D } J R ] 8 K %...[ p e 8 - % + . % * % % % % % * % % % % % % % % % % % % % % ",
"% % % % % % % @ @ @ @ @ % % @ @ @ @ @ @ @ @ @ % > E.`.V.z.o.' , o . . o + @ @ @ % % % : % % % % % % % % % % % % % % % % % % % % ",
"% % % % % * % % % % @ @ @ @ % % @ @ @ @ @ @ @ X C / [ ) T a 9 w r 6 % o . @ @ @ @ @ + @ % % % % % % % % % % % % % % % % % % % % ",
"* % % % % % % % % % % % % @ + @ @ @ @ % @ @ O O I e 8 9 w p p w w ] L.G.^ : @ @ @ @ @ @ @ @ @ % % % % % % % % % % % % % % % % % ",
"% % % % % % % % % % % % % % % % % % % % : % % o H.,.k 9 8 8 p k p ) >.:.L.} + @ @ @ @ @ @ @ @ @ @ @ @ % % % % % % % % % % % = % ",
": % % % % % % % % * % % % % % % % % % % % % % % % K O.5.1.O.( l l ) ' O.Q.x.+ % % % @ @ @ @ @ @ @ @ O % @ % % % % % % % % % = % ",
"* * * % % % % % % % % % % % % % % % % % % % % % % # . O = a  .,.1.1.7.,.( @ @ % % % % % % @ @ @ @ @ @ O @ @ @ % % % % % % % % % ",
"% * % % % % % % % % % % % % : % * % % % % % % % * * % % = # o . . o . . . @ @ % % % % % % % % % @ @ @ @ @ @ @ @ % % % % : = % % ",
"= % , % % , % , % , , % * , = = , % , % , % , % , % , % = = * = * * , * * * * % * = % , % , = = = = = : = = % * * * = = = = = = "
};
