/* XPM */
static char *_6567_199776edabe350478fcb594d785be3ad751b60f5f275af35bf95f57acd1e6b9d[] = {
/* columns rows colors chars-per-pixel */
"64 64 218 2 ",
"   c #000104",
".  c #01020C",
"X  c #030A0E",
"o  c #0A0D0F",
"O  c #06120E",
"+  c #0B140F",
"@  c #010313",
"#  c #030B15",
"$  c #0A0E14",
"%  c #01051A",
"&  c #050E1D",
"*  c #090D1D",
"=  c #080716",
"-  c #051115",
";  c #0B1216",
":  c #04101C",
">  c #0B121C",
",  c #13121A",
"<  c #131A1D",
"1  c #161719",
"2  c #1A221C",
"3  c #24251B",
"4  c #050E21",
"5  c #080E22",
"6  c #040C28",
"7  c #060B26",
"8  c #051122",
"9  c #091221",
"0  c #081329",
"q  c #131421",
"w  c #131A24",
"e  c #1B1B23",
"r  c #141B2A",
"t  c #1C1E2D",
"y  c #110F24",
"u  c #281D24",
"i  c #1A232D",
"p  c #1D2634",
"a  c #2B2D25",
"s  c #24262C",
"d  c #2D2D2B",
"f  c #262628",
"g  c #37292A",
"h  c #2A312B",
"j  c #35372A",
"k  c #262C38",
"l  c #322A33",
"z  c #29323E",
"x  c #2A323B",
"c  c #3A3936",
"v  c #463A38",
"b  c #5A3935",
"n  c #4D2D2C",
"m  c #673937",
"M  c #74363B",
"N  c #3F423B",
"B  c #42443B",
"V  c #4E413D",
"C  c #464936",
"Z  c #5C4A3F",
"A  c #78453E",
"S  c #2A3443",
"D  c #2D3A4A",
"F  c #353D45",
"G  c #2E3D50",
"H  c #463142",
"J  c #633A42",
"K  c #384556",
"L  c #3F444A",
"P  c #3F4F61",
"I  c #484D48",
"U  c #5C4B43",
"Y  c #514342",
"T  c #555545",
"R  c #424E59",
"E  c #505453",
"W  c #6C4844",
"Q  c #754444",
"!  c #7E4E44",
"~  c #69564C",
"^  c #74564A",
"/  c #785E54",
"(  c #6B4755",
")  c #5E634C",
"_  c #696B56",
"`  c #7B6253",
"'  c #7A6655",
"]  c #76765C",
"[  c #6E6B4B",
"{  c #465668",
"}  c #4B5A6D",
"|  c #54657A",
" . c #787A69",
".. c #797B72",
"X. c #716D6D",
"o. c #7C5073",
"O. c #87443C",
"+. c #864C47",
"@. c #8A564D",
"#. c #97564B",
"$. c #835355",
"%. c #935B56",
"&. c #A4594B",
"*. c #A45A57",
"=. c #B05F4E",
"-. c #86695A",
";. c #8C725D",
":. c #996C5A",
">. c #B16359",
",. c #AE6457",
"<. c #8E5A6F",
"1. c #A05B7A",
"2. c #9B6861",
"3. c #857169",
"4. c #9D7D69",
"5. c #977965",
"6. c #9C6372",
"7. c #A66A63",
"8. c #A47765",
"9. c #B2716B",
"0. c #B67A67",
"q. c #A76977",
"w. c #B57675",
"e. c #C37E75",
"r. c #C47F7B",
"t. c #7B8169",
"y. c #7D8570",
"u. c #828452",
"i. c #85846D",
"p. c #888976",
"a. c #8C9276",
"s. c #97967C",
"d. c #959070",
"f. c #A3836D",
"g. c #B0836D",
"h. c #B38E74",
"j. c #BB8A77",
"k. c #B69279",
"l. c #B9957A",
"z. c #AE8A72",
"x. c #A4A375",
"c. c #C78279",
"v. c #C7977A",
"b. c #C18E6F",
"n. c #CAA27F",
"m. c #586A81",
"M. c #5E7389",
"N. c #67798E",
"B. c #667C92",
"V. c #6A7F94",
"C. c #976389",
"Z. c #B86E86",
"A. c #B5718C",
"S. c #B26DB2",
"D. c #C07B80",
"F. c #C074A3",
"G. c #C97AC9",
"H. c #6B819A",
"J. c #6A8097",
"K. c #71879D",
"L. c #7189A2",
"P. c #738AA9",
"I. c #7E98B1",
"U. c #7C94AE",
"Y. c #98958B",
"T. c #AB8D8A",
"R. c #ACAE89",
"E. c #B3B28D",
"W. c #839CB5",
"Q. c #85A0BB",
"!. c #ACAEA7",
"~. c #C49E82",
"^. c #CA9E83",
"/. c #C79780",
"(. c #CBA284",
"). c #CBA488",
"_. c #D2A686",
"`. c #D5AA8B",
"'. c #DAAD8D",
"]. c #D1A689",
"[. c #DEB18F",
"{. c #DEB291",
"}. c #D9B69A",
"|. c #D3AD94",
" X c #E0AF8E",
".X c #E3B58F",
"XX c #E3B493",
"oX c #E9B796",
"OX c #E6B996",
"+X c #EBBA94",
"@X c #ECBC99",
"#X c #E6BA98",
"$X c #F1BF9B",
"%X c #C38EAF",
"&X c #CAB8AA",
"*X c #F4C29D",
"=X c #F9C59E",
"-X c #EFC19D",
";X c #D6C4B7",
":X c #D7D9AA",
">X c #F6C6A2",
",X c #E1DAAE",
"<X c #E2E4B3",
"1X c #EAEC99",
"2X c #8AA4C2",
"3X c #8EA9C6",
"4X c #8FACC9",
"5X c #93AFCD",
"6X c #93B1CE",
"7X c #96B4D3",
"8X c #99B6D5",
"9X c #9AB8D6",
"0X c #9BBAD9",
"qX c #A1C0DF",
"wX c #A2C2E5",
"eX c #D2CAC3",
"rX c #DDD4CD",
"tX c #FEFFFF",
/* pixels */
"& & & & & & : & & & & 4 : * 4 & & : > 4 & : & & & & & : & 8 & % % - # c j & 4 4 4 & & & & & & & & & & & & & 4 & & 4 &   > 4 & & ",
"& & & & & & : 4 & & # # & & & # & # X ; 8 7 4 & - 4 & & * % e v s 8 . Y.a.. : & & & & & & : & & & & & & & & & : : % 9 R # & & & ",
"& 8 & & & & & & : @ E E @ 0 & 8 O c a # % # * 4 & & & 4 7 v ~ / ~ U 5 < 2 # - & 4 : * & & & & & & & & & * & & & > & 0 I = 4 & # ",
"& & & & & & & & * % d c % 6 : 8   Y.t.  I B . 4 4 8 : % s ' l.^.~.-.9 % % 4 4 & & & & & & & & & & : & & & & & & 8 & & . & & * & ",
"& & & & & : & & & : # . * & & - & t <   y. .  8 7 & & # v l.$XoX=Xh.@ 6 8 : 6 & & & & & & & & & > & & & & & & & & & & 5 & * & & ",
"& & & & & & & # & & 4 4 & & & $ 4 4 # & # * 4 4 - & % e -.|.&X|.(.;XE @ & . 8 & & & : 4 & & & & & & & & 4 & & & & & & * & & & & ",
"4 4 > i & & & & 4 4 4 4 & : & & & - > 4 & 4 4 & : & & < 5.}.tXeX&XtX!.. h N @ > & & & 4 & & & & & & 8 & # * 4 * & 4 4 & & & & : ",
"& & : w & & & & & & * & : & & & & & & : & & & & 4 4 & & ;.XXeX&Xv.rXX.  I p.. 8 & & & : & & & & & 8 & # 8 & * = * 7 & & & & & & ",
"& 8 & % 4 4 & & & & & : 8 & & 4 4 - : 4 & & & 4 & & * @ / @X_..X~.'.U @ $ o * 5 & & & & & & & & : & r i % i I % 4 $ - & & & & & ",
"& & & 4 & 4 4 8 & : & 4 & & 4 4 & - & 4 4 & & & & & & , h.oXXX'.n.>X~ @ 9 & # & & 4 & & : 4 : & : % r i % 9 w 4 4 - : 4 4 & : & ",
"& 4 4 & 5 > # 8 & : & & & * & $ - & 4 & & & & & & & & * h.XXl.i.f. X~ @ 8 4 & & & & & & & & & & & : % % : & & # . > 4 4 & & & & ",
"& 4 7 - #   : - & 4 & & & > . s. .. 0 & & : & & & 9 > @ v XX_.T.5.`.Y % : & & 4 : & & & & & & : & & > : & 8 % j ) = 4 : & & & & ",
"& & 8 # h t.+ & 4 & & & & & @ ] T @ 4 & & : * o $ % : @ V @XOX+X>X~.* & & & & & & 4 & & : * > : & & & & & 5 @ ) R.@ : : & & & & ",
"4 & : @ Z <X2 & 8 & & & & * : = & * & & & = y d.~ f > > ^ @X).`.|.4.j 8 % # & 9 5 & > 9 % & % % q e 4 & & & & * & & & & 4 & & & ",
"& & : 7 , 3 $ * : & 4 & & & & 5 : & & 4 : # r E.XXXXk.(.XXXX(.(.(.l.^.$.$.( % 9 9 * % @ q f n W 9.q.> & & & & 4 & 4 & & & & : & ",
"4 & - 8 & @ * : # & 4 & & & & & & & & : 8 @ v oX{.XXoXXXoXXX.X`.0./ 7.e.c.q.* & % # > H %.7.e.e.e.w.9 & : & * & * & : & & & & 4 ",
"4 & & : 6 8 4 4 O & 4 & 4 & & & & & & & 8 . f.@X'.XX'.'.n.).S.q.&.0.e.w.r.2.* & l <.S.A.=.9.9.9.r.q.q 4 & & & : & & & & & * & & ",
"& & * & & : 4 4 & & 4 & & & : & & & & 4 8 @ 4.-X.XXXoXg.<.G.S.*.>.2.7.g.Z.q.i # J F.A.>.#.@.#.9.r.$.% & & & & & & & & & & : & & ",
"& & 4 & - - & 6 * & & & & & & & & & & 4 : @ 5.@X'.(..Xg.C.w.>.>.@.+.A %.7.:.n 1 #.>.&.#.Q m n u u = & & & & & & & & & & : & & & ",
"& & & & : # & 4 4 : & & & & & & & 4 & 9 % v  X.X).A -.@.=.&.O.O.m b -.h.`.z.+.,.#.+.b b *.n @ 4 % & 5 & ; - 4 4 & & & & & & & & ",
"& & & & 4 & & : & & & : & & & & 4 & & 9 @ ;.XX X`.@.=.@.O.8.~ @.#.:.>X@X@Xh.#.M Q h.` ` *.#.< O ; - 4 @ ..F @ > & & & & & & & & ",
"& & : & & & & & & & & & & & : 4 & & & 9 @ 4.@X[.+X0.O.$.].;.4.7.>.#.`..XXX'.Q g f.8.z.` J Z.g . : & 4 & i q % > & : & & & & & & ",
"& & & * 5 & & & : & & & & & & & 4 & & # @ 4.$X^.l.-./ {.{.-.8.v.q.<.b.OXXX|.m ^.[.M v.' l %Xm . 4 8 : 8 X = & & 4 & & * & & & & ",
"& * & 9 9 & & & & & & & & & & 4 & & 9 F @ -.`.).{.{.XXOX`.l.].+XT.C.0.#XXX'.m j./.M ~ h * Q n a.j # 8 4 & & : & & & & & & : & & ",
"& & : & & & & & & & & & & & 4 & 4 & : i @ ;.@XXX{.'.XXXX`.f.'.{.4.+./.OX`.^.^ /.j.n = # 5 @ 2 ,X_ @ 8 & 4 & & & & & & & & & : & ",
"& & & & & & & & & & & & > & 4 & & : & - @ -.@X'.XX$X'.k.Q :.$X_.`.).#XXXk.].OXXXg = * * * 7 # f < & : & 4 4 & & & & & & & & & * ",
"& & & & : & & & & & & & & & & & & & & > @ V =X@XOX8.h.#Xg.].[.XX@X[.'.[.].*X'.v @ * & & & & & % * & & & & & & & & & & & & & & & ",
"& & & & * & & & & & & 8 & & & & & & & & 8 # Z U f @ a ).*X'.~.(.].l.`.` Z 5.e @ > & & 4 4 & & * & 4 & & & & & & : & & & & & & & ",
"& & & & & : & & & & & & & & & & & & & & & 4 @ @ % ,   ;.$X_.'.`.).'.XXY . @ % 9 4 8 & 4 4 & & & & & & & & & & & & & & & : & & & ",
"4 & & & & & & & & & 8 & & : & & & & & & & : 9 4 < E.B Z =Xv.'.`._.(.'.V @ 9 9 : & 4 8 # & * : & & & & & 8 & : & & & & & & & & & ",
"8 4 & & & & & & & & * : & : & & : & & & & & & 4 9 a.d c *X(.`._.(.`.[.V % : & & & & # < 9 : & & & 4 & & : & & & : * & & : 4 & & ",
"8 # & & & : & & : & & 9 * : 4 & & & & & & & & > * . # a OXOXXX$X(.'.*X~ @ 8 & & & 8 @ L s % 8 : & * & & & & & : & & & & & & & & ",
"4 & & & : & & 4 # & & % # & 7 : & & & & 4 & & & & > & 1 _.l.3.-.T.3.' l & * & & & 8 * & & & & : & : & & & & : & & : & & & & # & ",
"4 4 & & & & & - & & * [ a 4 : : & : & & & & & & & > 4 > c , l g Y.X.s = & 4 & & & & & 4 & & & & & & & & & & 4 & * & 4 - & & # : ",
"4 & & & & & & & 8 & q 1X .% ; : & & & & & : & & & & : % , F V.K.W.2XW.P % 9 & & : & & & & & & & & & 4 & & & 4 & & 4 & : 8 4 4 - ",
"& & & & & & & & & & * C f % : & & & & * & & & : 4 & 9 . } qX7X7X5X4XwXB.. * & & & & & & & & & & & & & & & & & & & & 4 8 # # 7 : ",
"& & & & & & & & & & & % % : 8 4 & & & & & & & & & & 8 @ P 0X2X4X7X4X7XL.& & & & & & & : & & & & & & : * & & & & & & 8 % 2 h 4 & ",
"4 & & & & & & & 4 4 4 5 8 - : & & & : & & & & & & & 8 @ S 6X7X2XK 2X9XQ.9 # : 9 & & & & & & & 4 & & % % : = & & & & 9 @ ) R.. 8 ",
"4 & & & & & & & & & & & & # * 4 & & & & & & & & & & > # w 3X7X2Xx Q.7X3Xp % 5 4 & & & & & : & & 4 = C a % & 4 & & & & & < f = & ",
"8 & & & & & & & & & & & & & & : & & & & & & & & & : 8 % r 3X5X7XK L.9X7XG @ ; $ & & & & & & * & & # :Xa.. 9 & : & & & & & # 4 & ",
"5 & & & & & & & & & & & & & & & & & & & & : & & & & 5 # r 2X5X0XS J.7X7XG   ] y.. 9 & & & & & & & & T B % 8 & & & & & & : > & & ",
"5 & & & & & & & : & & & & & & & & & & & & & & & & & & # q W.5X0XS | 0X7XG . B B @ 5 & & & & & & & 4 X . 6 7 & & & & & & & & : & ",
"& & & & & & & & & & & & & & & & & & & & & & & & & & 4 4 & U.6X0Xx { 0X7X{ 7 # @ * & & & & & & & & 4 4 : 8 8 # 8 & & & & - & & & ",
"& & & & & & & & & & & & 4 : 4 & * 8 & & & & & & & & 4 8 # L.9X0Xz P 0X9Xm.@ 8 8 & & & & & & & & & & 6 - 7 4 & 4 8 & & & : & & & ",
"& & & & & : & & & & - & & : & & & & & & & & & & & 4 > # . K.7X9XD x 7X9X| . 8 : & & & & & & 4 & & : 7 # & 4 # - # & & 8 & & & & ",
"& : & & & & & & & & - 7 7 & - : : & & & & : & & : : # a B J.8X0XD s 7X9XB.# : & & & & & & & & & & & & : & 4 : & > $ & 4 & & & & ",
"* & & & & & * & & & & 8 7 - & & & & & 4 : * & & & - % [ x.K.9X6Xx i 7X7XP.& & & & & & & & & & & & 4 & # & : & 6 6 : - 4 & & & & ",
"4 4 & & & : & & & 4 8 7 & - * 5 & & & & & & & & & 4 6 3 j K.9X4Xi i 5X7XL.% & & & & & & & & & & & & & 5 & & & O $ 7 - & 4 4 & & ",
"& & & & & & & & & : . # 4 - 9 4 : & & & & & & & 4 7 : # @ H.0X2X9 i 3X9XH.# & & & & & & & & : : & : & & & 5 @ x.u.% 5 & & & & & ",
"& 4 & & & & & & 9 % B a % : & & & & & & & & & & * O & > = K.0X2X9 p 4X9XB.% > & & & & & & & & & & & & 4 & & * R.[ @ 4 & & & & & ",
"& & & & & & & & 9 . p._ @ 0 & & : & & & & & & & & & 7 & * I.9X2X5 k 5X0XN.@ 8 & & & & 4 & & & & : & & & & 8 # ; * & - : & & & & ",
"& & & & : & & & : & ; ; & 4 & & & & & & & & & & & & 8 % r 2X8XI.% k 5X0Xm.. 8 4 4 & & & & & & & & & & & & & : 4 5 & & & & & & : ",
"& & & & & & & & & 4 & 4 & & & & & & & : & & & 4 & & > % i 2X0XL.. k 5X0X| @ 9 & : & * & & & & & & & & : & & & : : 4 & & & & & & ",
"& & & & : & & & & & & & & & & & & & & & & & & & & & : % S 6X0XV.  k 6X0Xm.@ 9 & & - : - & : & & & & & & & & & * & & & & & & & & ",
"# & : & & & & & & & # & & & & & & & & & & & & & & & 9 . K 7X9XV.. k 6X0X| . 8 & 4 4 - 8 6 : & 4 * & & & & & & & & & & & & & & & ",
"9 : 4 & & & & & 4 # & & & & & & & & & & & & & & 8 & 9 . P 9X9XM.  x 6X0X} @ 8 : 7 4 O # & & & & & & & & & & & & & * & & & & & & ",
"@ & 8 & & & & & & & & & & & & & : % % 8 & & & & & & 8 . | 9X0X} . z 5X7XR . 5 & 8 . t.a.. 8 : & & & & : & & & & & & & & & & & & ",
"I < % * & & 4 & & & & & & & & 8 % s h & 5 & 4 * o o 5 @ M.9X7XK   S 0XqX{ @ : & & @ C _ . 4 & & * & & & & & : & & & & & & & & : ",
"!.j @ 8 & & 4 & & & & & & : & 9 . I _ . 5 # 8 @ t.p.@ @ B.wX0XK . t } | p % > & & & @ @ 8 & & & & & & & & & & & & & : & & & & & ",
"1 * 6 - - 4 4 & & : : & & & & & 4 = # & 4 - 8 % T T % # D K.J.w % > j a a & & 4 & & 5 > 4 & & & & & & & & & & 4 & & & & & & & & ",
"# & 4 : : 8 : : & & & & 5 & : * 7 7 & > & - & 4 . . 7 & , a d < % ; l c c d * & 4 & : & & & & & & & & & : & & & & & & & & & * : ",
"5 - : 4 % # : : & & & : & & & - 4 6 & # & & & & & 5 & & i N v c e % # $ ; , & & & & & & & & & & : & & & & & & & & & & & & & & 4 ",
"4 # : & 2 s # : & 4 & & & & & * & 8 & 4 & 4 & 8 4 4 & & = , 1 < < : 5 & & & & & & & & 4 & & 4 : & & & & & * & & & & & & & & & & ",
"4 & 7 @ _ R.. > 5 4 & & & & & & 4 : # & 6 4 4 - 6 8 - # 4 & $ # % 5 & & & * & & & & & & & & 4 : & & & & & & & & & : & & : & & & "
};
